<?xml version="1.0" encoding="UTF-8"?>
<!DOCTYPE svg PUBLIC "-//W3C//DTD SVG 1.1//EN" "http://www.w3.org/Graphics/SVG/1.1/DTD/svg11.dtd">
<!-- Creator: CorelDRAW -->
<svg xmlns="http://www.w3.org/2000/svg" xml:space="preserve" width="8.5in" height="11in" style="shape-rendering:geometricPrecision; text-rendering:geometricPrecision; image-rendering:optimizeQuality; fill-rule:evenodd; clip-rule:evenodd"
viewBox="0 0 8.5 11">
 <defs>
  <style type="text/css">
   <![CDATA[
    .str0 {stroke:#6B470F;stroke-width:0.003}
    .fil7 {fill:black}
    .fil3 {fill:white}
    .fil14 {fill:#332B24}
    .fil0 {fill:#5E3812}
    .fil6 {fill:#6B470F}
    .fil4 {fill:#70591C}
    .fil1 {fill:#78570A}
    .fil9 {fill:#823D0A}
    .fil11 {fill:#8C4200}
    .fil2 {fill:#9E5205}
    .fil5 {fill:#B86905}
    .fil8 {fill:#BA5700}
    .fil10 {fill:#C27D05}
    .fil12 {fill:#F7B512}
    .fil13 {fill:#FAC93D}
   ]]>
  </style>
 </defs>
 <g id="Layer_x0020_1">
  <metadata id="CorelCorpID_0Corel-Layer"/>
  <g id="_129902544">
   <path id="_130290640" class="fil0" d="M0.381843 1.23643c0.086,-0.179 0.163,-0.36 0.29,-0.512 0.01,-0.029 0.021,-0.08 0.053,-0.093 0.032,0 0.064,0 0.096,0 0.019,-0.002 0.134,-0.007 0.151,-0.024 0.155,0.016 0.316,-0.036 0.472,-0.032 0.032,-0.005 0.121,-0.017 0.143,-0.001 0.147,-0.012 0.297,-0.018 0.445,-0.022 0.005,-0.002 0.01,-0.004 0.014,-0.005 0.004,0.004 0.062,0.005 0.071,0 0.204,0.007 0.418,-0.01 0.62,0.019 0.033,-0.008 0.066,-0.015 0.098,-0.022 0.042,-0.016 0.129,-0.033 0.169,-0.003 0.019,-0.002 0.024,-0.006 0.045,-0.004 0.012,0.025 0.05,-0.004 0.065,0.011 0.004,-0.005 0.004,-0.005 0.012,-0.007 0.066,0.017 0.145,0.008 0.174,-0.06 0.005,-0.002 0.01,-0.004 0.015,-0.005 0.001,0.004 0.002,0.008 0.002,0.013 0.001,-0.003 0.002,-0.006 0.003,-0.009 0.01,0.01 0.041,0.011 0.053,0.011 0.002,0.002 0.004,0.004 0.006,0.007 0.019,0 0.031,-0.001 0.049,0.006 -0.001,0.001 -0.002,0.002 -0.003,0.004 0.032,0.016 0.066,-0.013 0.081,0.034 0.017,0.011 0.011,0.026 0.023,0.038 0.025,0.002 0.049,0.005 0.073,0.008 0.079,-0.009 0.163,0.017 0.242,0.003 0.001,-0.002 0.001,-0.003 0.001,-0.004 0.003,0.001 0.006,0.002 0.009,0.004 0.086,-0.01 0.173,-0.01 0.259,-0.01 0.001,0.001 0.002,0.002 0.003,0.004 0.015,0 0.03,0 0.045,0 0.002,-0.002 0.003,-0.003 0.004,-0.004 0.026,0.013 0.061,-0.002 0.091,0.003 0.002,0.002 0.003,0.005 0.004,0.008 0.001,-0.004 0.002,-0.008 0.002,-0.012 0.009,0 0.008,0.002 0.012,0.008 0.03,0 0.066,0.008 0.087,0.029 0.017,-0.005 0.032,0.013 0.042,0.016 0.001,-0.003 0.002,-0.005 0.002,-0.007 0.003,0 0.005,0 0.007,0 0.001,0.003 0.001,0.006 0.001,0.009 0.005,-0.002 0.009,-0.004 0.013,-0.005 0.002,0.003 0.004,0.006 0.006,0.009 0.001,-0.002 0.001,-0.003 0.001,-0.004 0.006,0 0.012,0 0.017,0.001 0.005,0.01 0.021,0.008 0.035,0.01 0.001,0.002 0.002,0.004 0.002,0.007 0.01,0 0.01,0 0.013,-0.003 0.005,0.01 0.013,0.01 0.024,0.011 0.001,0.002 0.002,0.004 0.003,0.006 0.034,0.006 0.034,0.006 0.036,0.004 0.004,0.009 0.01,0.009 0.02,0.01 0.012,0.013 0.022,0.016 0.042,0.037 0.004,-0.002 0.008,-0.003 0.011,-0.004 0.003,0.004 0.006,0.008 0.008,0.012 -0.013,0.01 -0.013,0.01 -0.013,0.015 0.002,0 0.004,0 0.006,0 -0.004,0.018 -0.007,0.026 0.007,0.043 0.003,-0.001 0.006,-0.001 0.008,-0.001 0.002,0.01 0.002,0.01 0.011,0.02 0.002,-0.004 0.004,-0.008 0.006,-0.012 0.002,0.002 0.004,0.004 0.005,0.007 0.027,-0.006 0.062,0.015 0.091,0.015 0.002,0.003 0.003,0.006 0.004,0.009 0.016,0 0.016,-0.003 0.028,0.009 0.006,-0.006 0.011,-0.006 0.021,-0.006 0.002,0.002 0.003,0.004 0.004,0.006 0.004,-0.001 0.008,-0.002 0.011,-0.003 0.04,0.026 0.006,0.037 0.028,0.067 0,0.021 0,0.021 0.01,0.066 0.003,-0.001 0.005,-0.001 0.007,-0.001 -0.003,0.019 -0.003,0.014 0.003,0.03 -0.003,0.001 -0.006,0.002 -0.01,0.003 -0.001,0.01 -0.002,0.02 -0.004,0.031 -0.007,0 -0.007,0 -0.016,0.006 -0.006,0.025 -0.07,0.076 -0.096,0.083 -0.001,-0.003 -0.002,-0.006 -0.003,-0.009 -0.011,0.004 -0.009,0.03 -0.008,0.04 0.002,0 0.004,0 0.006,0.001 -0.001,0.001 -0.002,0.003 -0.004,0.005 0.004,0.001 0.008,0.003 0.011,0.005 0,0.012 0,0.024 0,0.036 -0.034,0.011 -0.086,0.032 -0.12,0.027 -0.003,-0.007 -0.006,-0.013 -0.01,-0.019 -0.005,0 -0.01,0 -0.015,0.001 -0.002,-0.011 -0.002,-0.011 -0.005,-0.012 -0.016,0.026 -0.007,0.075 -0.007,0.103 -0.005,0 -0.006,0.005 -0.016,0.004 -0.007,-0.008 -0.007,-0.008 -0.01,-0.021 -0.001,0.003 -0.002,0.007 -0.004,0.011 -0.017,0.003 -0.034,0.002 -0.049,-0.007 -0.001,0.002 -0.002,0.004 -0.004,0.006 -0.01,-0.01 -0.03,-0.002 -0.044,0 -0.004,-0.005 -0.008,-0.01 -0.013,-0.014 -0.007,0.01 -0.024,0.022 -0.036,0.014 -0.001,0.001 -0.003,0.002 -0.005,0.004 -0.014,-0.014 -0.067,-0.015 -0.086,-0.01 -0.041,-0.011 -0.08,-0.002 -0.121,0.003 -0.001,-0.003 -0.003,-0.005 -0.005,-0.007 -0.002,0.002 -0.227,0 -0.24,-0.013 -0.005,0.005 -0.135,-0.007 -0.14,-0.007 -0.02,0.02 -0.121,-0.004 -0.159,0.015 -0.065,0.002 -0.075,-0.001 -0.263,-0.001 -0.002,0.011 -0.002,0.011 0.002,0.014 -0.014,0.008 -0.028,0.017 -0.042,0.026 -0.015,0.022 -0.043,0.07 -0.069,0.076 -0.167,-0.04 -0.32,-0.111 -0.499,-0.076 0.028,0.057 -0.002,0.089 -0.057,0.103 -0.016,0.033 -0.029,0.054 -0.068,0.054 -0.001,0.002 -0.003,0.004 -0.005,0.006 0.017,0.058 0.007,0.066 -0.045,0.074 -0.001,0.002 -0.003,0.004 -0.005,0.006 0.017,0.035 -0.001,0.041 -0.033,0.065 0.001,0.043 0.002,0.086 0.003,0.129 0.023,0.187 0.03,0.217 0.03,0.243 -0.004,0.006 -0.015,0.01 -0.017,0.016 0.002,0.012 0.004,0.024 0.006,0.037 0.014,0.005 0.014,0.005 0.018,0.011 0.005,0.036 0.014,0.071 0.033,0.102 0.004,0.058 -0.003,0.173 -0.033,0.219 0.003,0.007 0.005,0.014 0.007,0.021 0.046,-0.01 0.105,-0.039 0.152,-0.033 0.059,0.051 0.105,0.111 0.173,0.15 0.087,0.007 0.087,0.007 0.136,0.007 0.054,-0.021 0.252,0.008 0.267,0.071 0.012,0 0.02,0.016 0.027,0.023 0.051,0.031 0.116,0.094 0.176,0.052 0.004,0 0.008,0 0.011,0 0.006,-0.012 0.046,-0.018 0.059,-0.021 0.001,0.003 0.002,0.006 0.002,0.01 0.012,0.001 0.047,0.015 0.093,0.025 0.03,0.026 0.042,0.064 0.078,0.086 0.014,0.002 0.028,0.004 0.042,0.007 0.002,0.003 0.003,0.006 0.004,0.009 -0.001,0 -0.002,0 -0.004,0.001 0.002,0.018 0.004,0.036 0.006,0.054 0.014,0.004 0.026,-0.004 0.041,0.003 0.025,-0.016 0.115,-0.007 0.14,-0.008 0.112,0.004 0.129,0.008 0.293,0.018 0.006,0.024 0.01,0.041 0.012,0.065 0.054,0 0.099,-0.001 0.149,-0.019 0.039,0.018 0.086,0.034 0.127,0.044 0.003,0.005 0.003,0.005 0.002,0.026 -0.014,0.004 -0.02,0.021 -0.027,0.033 0.014,0.024 0.032,0.035 0.041,0.061 0.002,0 0.004,0 0.006,0 0.008,0.019 0.016,0.02 0.01,0.043 -0.042,-0.001 -0.085,-0.002 -0.128,-0.003 -0.01,0.019 -0.021,0.039 -0.032,0.059 -0.013,0.014 -0.031,0.028 -0.035,0.046 -0.004,0 -0.008,0 -0.013,0.001 -0.049,0.07 -0.117,0.196 -0.191,0.237 -0.007,-0.001 -0.014,-0.002 -0.021,-0.003 -0.027,0.017 -0.142,0.024 -0.17,0.016 -0.008,0.004 -0.039,0.007 -0.044,0.004 -0.089,0.011 -0.089,0.011 -0.107,0.009 0,0.002 -0.001,0.004 -0.002,0.006 -0.013,-0.013 -0.118,0.01 -0.136,0.012 -0.009,-0.004 -0.009,-0.004 -0.019,-0.001 -0.251,0.014 -0.333,0.014 -0.432,0.02 -0.063,0 -0.063,0 -0.073,0.004 -0.017,-0.017 -0.072,0.029 -0.092,0.009 -0.006,0.003 -0.013,0.007 -0.02,0.011 -0.118,0 -0.236,0 -0.354,0 -0.038,-0.011 -0.096,-0.005 -0.135,-0.007 -0.009,-0.009 -0.036,-0.01 -0.047,-0.003 -0.058,-0.005 -0.115,-0.018 -0.174,-0.02 -0.019,-0.009 -0.041,-0.011 -0.063,-0.013 -0.009,-0.009 -0.02,-0.012 -0.032,-0.008 -0.006,-0.006 -0.011,-0.006 -0.019,-0.002 -0.071,-0.014 -0.142,-0.028 -0.213,-0.041 -0.479,-0.043 -0.957,-0.087 -1.43,-0.176 -0.029,0.003 -0.029,0.003 -0.044,0 -0.01,-0.015 -0.016,-0.023 -0.031,-0.032 -0.028,-0.061 -0.057,-0.122 -0.086,-0.183 -0.003,-0.035 -0.003,-0.035 -0.001,-0.041 0.006,-0.002 0.012,-0.004 0.017,-0.006 0.002,-0.003 0.003,-0.006 0.004,-0.008 0.006,0 0.006,0 0.01,0.004 0.001,-0.004 0.001,-0.008 0.001,-0.012 0.031,-0.007 0.044,-0.028 0.079,-0.025 0.017,0.013 0.039,0.029 0.061,0.029 0.019,-0.023 0.048,-0.064 0.052,-0.093 0.007,-0.006 0.015,-0.024 0.024,-0.033 0.016,-0.002 0.031,-0.003 0.046,-0.004 0.156,-0.031 0.314,-0.063 0.472,-0.079 0.011,-0.004 0.022,-0.007 0.032,-0.01 0.046,-0.075 0.07,-0.172 0.081,-0.259 0.07,-0.02 0.139,-0.047 0.208,-0.07 0.028,-0.02 0.06,-0.082 0.081,-0.087 0,-0.034 0.025,-0.038 0.052,-0.045 0.049,-0.021 0.099,-0.035 0.146,-0.06 0.004,-0.008 0.004,-0.008 0.005,-0.096 0.033,-0.016 0.061,-0.048 0.097,-0.053 0.024,-0.018 0.052,-0.032 0.061,-0.041 0.043,-0.008 0.084,-0.016 0.129,-0.019 0.001,-0.002 0.002,-0.004 0.003,-0.005 0.001,0.002 0.002,0.004 0.003,0.006 0.012,0.003 0.012,0.003 0.047,-0.001 0,-0.046 -0.018,-0.134 0.008,-0.174 0.045,-0.011 0.088,-0.058 0.12,-0.09 0.015,-0.053 0.026,-0.126 0.051,-0.176 0.009,-0.004 0.009,-0.004 0.018,-0.017 0.03,-0.004 0.088,-0.011 0.106,-0.034 -0.026,-0.033 -0.061,-0.058 -0.017,-0.096 -0.003,-0.002 -0.006,-0.003 -0.009,-0.004 -0.002,0.001 -0.004,0.002 -0.007,0.004 -0.065,-0.041 -0.079,-0.046 -0.036,-0.116 -0.071,-0.007 -0.15,0.006 -0.225,0.003 -0.021,-0.014 -0.039,-0.064 -0.051,-0.087 -0.074,-0.021 -0.159,-0.014 -0.233,-0.034 -0.21,-0.012 -0.413,-0.023 -0.62,-0.013 -0.024,0.017 -0.041,0.056 -0.07,0.063 0,0.002 -0.001,0.004 -0.002,0.007 -0.042,0.028 -0.086,0.062 -0.114,0.1 -0.007,0.001 -0.014,0.002 -0.022,0.003 -0.066,-0.033 -0.139,-0.019 -0.201,-0.058 -0.004,-0.027 -0.021,-0.029 -0.032,-0.052 -0.034,-0.003 -0.067,0 -0.101,0.004 -0.003,0.011 -0.05,0.033 -0.064,0.039 -0.005,0.017 -0.029,0.021 -0.044,0.031 -0.014,0.02 -0.039,0.025 -0.05,0.047 -0.007,0 -0.145,-0.071 -0.17,-0.087 -0.037,-0.012 -0.058,-0.023 -0.067,-0.062z"/>
   <path id="_128988216" class="fil1" d="M0.434843 1.22643c0.012,-0.021 0.026,-0.061 0.062,-0.135 0.016,-0.013 0.025,-0.047 0.031,-0.066 0.002,-0.001 0.004,-0.002 0.006,-0.003 0.025,-0.049 0.051,-0.102 0.083,-0.147 0.059,-0.002 0.118,-0.004 0.177,-0.006 -0.024,0.028 -0.046,0.056 -0.064,0.088 0.005,0.011 0.013,0.021 0.01,0.034 -0.029,0.034 -0.133,0.134 -0.133,0.185 0.003,0 0.005,0.001 0.007,0.002 0.03,-0.05 0.03,-0.05 0.057,-0.083 0.01,0.001 0.02,0.002 0.03,0.004 -0.001,-0.007 -0.003,-0.013 -0.005,-0.019 -0.003,0.001 -0.007,0.002 -0.011,0.003 0.016,-0.033 0.055,-0.069 0.079,-0.098 0,-0.047 0.011,-0.094 0.061,-0.114 0.03,0.015 0.13,-0.028 0.173,-0.037 0.042,0.007 0.042,0.007 0.065,0.014 0.105,0 0.118,0.015 0.067,0.103 -0.016,0.02 -0.041,0.043 -0.046,0.069 -0.001,-0.002 -0.002,-0.004 -0.004,-0.006 -0.005,0.015 -0.019,0.032 -0.027,0.047 -0.002,0 -0.004,0 -0.006,0 -0.007,0.017 -0.021,0.017 -0.037,0.019 -0.001,0.003 -0.002,0.007 -0.003,0.011 -0.01,0.006 -0.01,0.006 -0.034,0.013 -0.003,0.013 -0.006,0.026 -0.01,0.04 0.002,0.032 0.019,0.084 -0.002,0.11 -0.005,-0.021 -0.004,-0.036 -0.004,-0.057 -0.011,-0.004 -0.023,-0.007 -0.035,-0.01 -0.016,0.01 -0.016,0.01 -0.029,0.024 -0.034,0.005 -0.068,0.01 -0.102,0.015 -0.006,0.018 -0.03,0.017 -0.047,0.021 0,-0.003 -0.001,-0.005 -0.002,-0.007 -0.001,0.003 -0.002,0.006 -0.004,0.01 -0.011,-0.003 -0.011,-0.003 -0.015,-0.009 -0.027,0.012 -0.063,0.019 -0.076,0.046 -0.018,0.01 -0.018,0.01 -0.033,0.025 -0.031,0 -0.067,-0.01 -0.093,-0.028 -0.009,-0.018 -0.043,-0.027 -0.063,-0.031 0,-0.004 0,-0.008 -0.001,-0.012 -0.003,0 -0.007,0 -0.011,0 -0.003,-0.005 -0.007,-0.01 -0.011,-0.015z"/>
   <path id="_128765976" class="fil2" d="M0.531843 3.02043c0.063,-0.045 0.098,-0.012 0.163,0.011 0.021,-0.008 0.03,-0.032 0.043,-0.05 0.013,0 0.02,-0.006 0.028,-0.014 0.044,-0.006 0.047,-0.009 0.122,-0.018 0.002,-0.002 0.003,-0.004 0.004,-0.005 0.077,-0.005 0.149,-0.036 0.228,-0.029 0,0.021 -0.003,0.042 0.01,0.059 0.02,-0.013 0.012,-0.045 0.028,-0.066 0.09,-0.003 0.088,0.003 0.079,-0.097 0.028,-0.005 0.051,-0.006 0.078,-0.008 0,0.016 0,0.033 -0.001,0.05 -0.001,-0.002 -0.002,-0.004 -0.004,-0.006 -0.006,0.066 -0.01,0.08 -0.008,0.087 0.011,-0.003 0.015,0 0.022,-0.005 0.007,-0.054 0.014,-0.108 0.02,-0.161 0.02,-0.026 0.057,-0.064 0.084,-0.083 0.033,-0.057 0.033,-0.057 0.059,-0.092 0.003,-0.018 0.003,-0.018 0.014,-0.038 0.023,0 0.049,-0.014 0.069,-0.014 0.002,0.014 0.007,0.023 0.017,0.033 -0.006,0.016 -0.026,0.018 -0.031,0.035 0.027,0.008 0.053,0.016 0.079,0.024 -0.022,0.059 -0.035,0.133 -0.018,0.195 0.031,0 0.031,0 0.064,-0.006 -0.002,-0.022 -0.027,-0.023 -0.046,-0.019 -0.005,-0.023 -0.016,-0.075 0.015,-0.081 0,-0.005 -0.001,-0.01 -0.002,-0.014 -0.003,-0.001 -0.006,-0.002 -0.01,-0.002 0.007,-0.028 0.015,-0.054 0.029,-0.079 -0.013,-0.013 -0.039,-0.033 -0.059,-0.027 0,-0.031 -0.004,-0.05 -0.013,-0.08 0.053,-0.011 0.114,-0.046 0.146,-0.089 0.044,-0.033 0.071,-0.067 0.129,-0.076 -0.006,0.073 -0.013,0.146 -0.02,0.219 -0.002,0.001 -0.004,0.002 -0.006,0.004 0.016,0.037 0.008,0.093 0.005,0.131 0.003,0 0.006,0.001 0.008,0.002 0.001,0.003 0.002,0.007 0.002,0.011 0.003,0 0.006,0 0.009,0 0.002,-0.037 0.006,-0.043 0.009,-0.117 0.006,-0.004 0.006,-0.004 0.038,-0.005 -0.005,0.016 -0.01,0.032 -0.016,0.049 0.004,0 0.008,0 0.012,0 0.015,-0.017 0.023,-0.039 0.033,-0.058 -0.02,-0.015 -0.038,-0.004 -0.063,-0.01 -0.015,-0.045 0.007,-0.153 0.012,-0.198 0.01,-0.031 0.035,-0.026 0.057,-0.044 0.026,-0.066 0.081,-0.185 0.107,-0.254 0.007,-0.011 0.013,-0.012 0.018,-0.018 0.002,0.001 0.004,0.002 0.005,0.004 0.005,-0.004 0.009,-0.007 0.013,-0.01 0.001,0.003 0.001,0.006 0.001,0.01 0.007,-0.001 0.014,-0.001 0.02,-0.001 -0.002,-0.005 -0.004,-0.01 -0.006,-0.014 0.004,0 0.007,0 0.01,0 0,0.002 0,0.005 -0.001,0.008 0.003,0.002 0.005,0.004 0.007,0.007 0.003,-0.002 0.006,-0.003 0.009,-0.004 0.004,0.037 -0.019,0.087 -0.019,0.128 0.032,-0.022 0.039,-0.092 0.05,-0.127 0.046,-0.005 0.103,0.016 0.143,0.005 0.001,-0.003 0.002,-0.005 0.003,-0.007 0.006,0.013 0.003,0.121 0.001,0.153 -0.001,-0.003 -0.002,-0.006 -0.004,-0.008 -0.001,0.001 -0.002,0.003 -0.004,0.005 0.013,0.02 0.004,0.075 0.004,0.098 -0.049,0.034 -0.061,0.037 -0.08,0.087 -0.024,0.024 -0.004,0.065 -0.016,0.089 -0.001,0 -0.002,0 -0.004,0.001 -0.001,0.009 -0.002,0.019 -0.004,0.029 -0.002,0.001 -0.004,0.002 -0.006,0.003 0,0.007 -0.004,0.011 -0.004,0.046 0.002,0.001 0.003,0.002 0.004,0.003 -0.013,0.016 -0.014,0.024 -0.021,0.029 -0.044,0.007 -0.044,0.007 -0.046,0.01 0.016,0.004 0.032,0.007 0.049,0.006 0.001,0.007 0.001,0.015 0.001,0.023 -0.005,0.002 -0.013,-0.002 -0.026,0.003 0.005,0.008 0.005,0.008 0.02,0.016 -0.002,0.038 -0.005,0.077 -0.008,0.116 0.011,0.005 0.015,0.006 0.028,0.004 0.009,-0.077 0.018,-0.154 0.026,-0.23 0.024,-0.104 0.024,-0.104 0.023,-0.116 0.015,-0.015 0.019,-0.048 0.025,-0.068 0.04,-0.008 0.063,-0.019 0.082,-0.055 0.022,-0.071 0.054,-0.152 0.068,-0.224 0.011,-0.002 0.021,-0.004 0.031,-0.005 0.01,-0.018 0.013,-0.042 0.023,-0.057 0.012,-0.002 0.023,-0.003 0.034,-0.004 0.001,0.007 0.002,0.014 0.003,0.022 0.007,0 0.013,0 0.019,0.001 -0.001,0.05 -0.002,0.101 -0.004,0.152 0.015,0.039 0.005,0.096 0.013,0.141 0.013,0.001 0.013,0.001 0.024,-0.004 -0.005,-0.079 -0.011,-0.156 -0.003,-0.236 0.004,0 0.004,0 0.008,0.009 0.011,-0.023 0.011,-0.023 0.012,-0.032 0.004,0 0.007,0 0.01,0 -0.004,0.103 -0.004,0.103 -0.015,0.219 0.003,0 0.006,0 0.008,0 0.002,-0.015 0.01,-0.021 0.013,-0.034 0.005,-0.001 0.009,-0.002 0.013,-0.002 0.002,-0.037 0,-0.088 0.013,-0.122 0.044,0.029 0.008,0.097 -0.003,0.137 0,0.053 -0.012,0.115 -0.03,0.166 -0.001,0.025 -0.002,0.05 -0.004,0.076 -0.013,0.006 -0.018,0.086 -0.017,0.106 0.002,0 0.004,0.001 0.006,0.002 0.032,-0.042 0.039,-0.142 0.05,-0.196 0.011,-0.003 0.037,-0.009 0.042,-0.019 0.001,0.002 0.002,0.004 0.002,0.006 0.01,-0.001 0.019,-0.008 0.044,-0.014 0.03,-0.001 0.03,-0.001 0.037,-0.004 0.006,0.006 0.017,0.001 0.026,0.001 0.01,0.016 0.005,0.04 0.015,0.053 -0.004,0.004 -0.004,0.004 -0.007,0.003 -0.009,0.083 -0.013,0.169 -0.021,0.253 -0.021,0.032 -0.013,0.105 -0.013,0.141 -0.012,0.012 -0.031,0.026 -0.046,0.034 0,0.003 -0.001,0.006 -0.002,0.01 0.026,0 0.052,-0.011 0.071,-0.03 0,-0.08 0.005,-0.159 0.027,-0.237 0,-0.052 0,-0.052 0.011,-0.184 0.003,0 0.005,0 0.007,0 0.026,0.031 0.062,0.066 0.094,0.089 0.038,0.014 0.097,0.028 0.135,0.018 -0.031,0.031 -0.027,0.054 -0.034,0.096 -0.012,0.008 -0.048,0.02 -0.06,0.029 0.004,0.099 0.014,0.198 0.027,0.296 0.006,0.007 0.011,0.014 0.016,0.022 0.009,-0.001 0.009,-0.001 0.014,-0.005 0,-0.014 -0.007,-0.03 -0.01,-0.052 0.011,-0.005 0.022,-0.01 0.033,-0.014 -0.001,-0.003 -0.002,-0.006 -0.003,-0.008 -0.009,-0.001 -0.018,-0.001 -0.028,-0.001 -0.003,-0.015 -0.005,-0.029 -0.004,-0.045 0.003,-0.002 0.006,-0.003 0.009,-0.004 -0.004,-0.001 -0.008,-0.002 -0.012,-0.003 0.007,-0.011 0.016,-0.016 0.025,-0.005 0.009,-0.004 0.019,-0.014 0.016,-0.025 -0.006,-0.002 -0.006,-0.002 -0.041,0.004 -0.004,-0.04 -0.02,-0.108 -0.012,-0.143 -0.002,-0.002 -0.004,-0.004 -0.007,-0.005 0.012,-0.022 0.042,-0.018 0.061,-0.03 0,-0.018 0,-0.035 -0.001,-0.052 0.018,-0.037 0.068,-0.052 0.108,-0.042 0.038,-0.003 0.138,-0.004 0.166,0.024 0.003,0.061 -0.014,0.135 0,0.191 -0.001,-0.002 -0.002,-0.004 -0.004,-0.006 0.004,0.022 0.011,0.033 0.011,0.046 0.005,0 0.01,0 0.015,0.001 0.006,-0.068 0.007,-0.136 0.009,-0.204 0.018,0 0.036,0.025 0.049,0.036 0.025,0.016 0.088,0.04 0.1,0.065 -0.027,0.018 -0.032,0.098 -0.05,0.132 -0.006,0.029 -0.02,0.057 -0.021,0.086 0.006,-0.001 0.011,-0.002 0.016,-0.002 0.032,-0.058 0.052,-0.138 0.075,-0.201 0.042,-0.017 0.039,0.011 0.047,0.044 -0.001,0.002 -0.002,0.004 -0.004,0.006 0.01,0.066 0.008,0.133 0.019,0.196 0.013,-0.001 0.013,-0.001 0.021,-0.005 -0.007,-0.01 -0.006,-0.02 -0.006,-0.032 0.006,-0.001 0.006,-0.006 0.011,-0.009 0,0.006 0,0.012 -0.001,0.018 0.002,0.001 0.004,0.002 0.006,0.004 0,-0.006 0,-0.006 0.003,-0.007 0.008,0.045 0.006,0.051 0.01,0.057 0.002,-0.003 0.003,-0.006 0.004,-0.008 0.008,0.024 0.008,0.024 0.013,0.028 0.002,-0.001 0.003,-0.002 0.004,-0.003 -0.012,-0.075 -0.024,-0.15 -0.036,-0.225 -0.003,0 -0.006,0 -0.009,0.001 -0.001,0.015 -0.001,0.015 -0.004,0.015 -0.009,-0.029 -0.003,-0.065 -0.014,-0.092 0.053,-0.035 0.071,-0.036 0.129,-0.013 0,0.036 0,0.073 0,0.11 -0.011,0.008 -0.023,0.016 -0.035,0.025 0,0.01 -0.001,0.017 0.004,0.025 0.071,0 0.147,-0.002 0.218,0.003 0.019,-0.006 0.033,0.009 0.051,-0.003 0.059,0.004 0.13,-0.008 0.187,0.01 0.016,0.001 0.035,0.006 0.049,-0.004 0.04,0.02 0.093,0 0.136,0.018 0,0.016 -0.003,0.02 -0.01,0.059 0.02,0.03 0.066,0.027 0.1,0.027 0.02,-0.01 0.04,-0.02 0.059,-0.03 0.022,-0.025 0.086,0.005 0.113,0.012 0,0.019 -0.005,0.027 -0.018,0.04 0.002,0.01 0.004,0.021 0.005,0.032 0.021,0 0.041,0.021 0.041,0.041 -0.001,-0.002 -0.002,-0.004 -0.003,-0.005 -0.016,0.005 -0.067,0.001 -0.085,-0.003 -0.114,0.084 -0.159,0.25 -0.259,0.35 -0.027,0 -0.027,0 -0.09,0.01 -0.085,-0.001 -0.181,0.001 -0.265,0.02 -0.062,0.003 -0.146,0 -0.209,0.013 -0.085,0 -0.173,0.014 -0.258,0.013 -0.196,0.017 -0.198,0.02 -0.228,0.023 -0.017,-0.004 -0.054,0.001 -0.068,0.011 -0.001,-0.003 -0.003,-0.005 -0.005,-0.007 -0.005,0.001 -0.01,0.003 -0.015,0.005 0,-0.003 -0.001,-0.006 -0.002,-0.008 -0.006,0.003 -0.006,0.003 -0.008,0.012 -0.01,-0.006 -0.015,-0.01 -0.026,-0.005 -0.008,-0.008 -0.116,0.003 -0.14,0.002 0,0.002 -0.001,0.004 -0.002,0.006 -0.001,-0.002 -0.002,-0.004 -0.004,-0.005 -0.002,0.001 -0.004,0.002 -0.006,0.003 -0.002,-0.003 -0.004,-0.005 -0.007,-0.007 -0.019,0.004 -0.033,0 -0.05,0.005 -0.141,0 -0.285,-0.004 -0.421,-0.035 -0.012,-0.001 -0.024,-0.002 -0.037,-0.003 -0.022,-0.007 -0.101,-0.017 -0.217,-0.04 -0.058,0 -0.125,-0.034 -0.181,-0.02 -0.033,-0.022 -0.11,-0.018 -0.155,-0.021 0,0.003 -0.001,0.006 -0.002,0.01 -0.001,-0.004 -0.002,-0.007 -0.003,-0.01 -0.212,-0.015 -0.212,-0.015 -0.217,-0.012 -0.023,-0.023 -0.146,-0.017 -0.179,-0.02 -0.038,-0.012 -0.107,-0.026 -0.145,-0.017 -0.005,-0.003 -0.01,-0.005 -0.016,-0.007 -0.099,-0.012 -0.197,-0.026 -0.292,-0.046 -0.032,-0.003 -0.065,-0.005 -0.098,-0.007 -0.017,-0.017 -0.076,-0.017 -0.102,-0.016 -0.001,0.001 -0.002,0.002 -0.004,0.004 -0.001,-0.004 -0.002,-0.008 -0.003,-0.012 -0.01,0.001 -0.041,-0.007 -0.047,-0.013 -0.036,0.009 -0.106,-0.017 -0.132,-0.043 -0.026,-0.046 -0.078,-0.115 -0.087,-0.171z"/>
   <path id="_128671160" class="fil1" d="M0.637843 0.830433c0.003,0 0.005,0 0.007,0 0,-0.003 0,-0.005 0,-0.007 0.003,0 0.005,0 0.007,0 0.021,-0.037 0.047,-0.072 0.086,-0.086 0.057,0.029 0.116,0.06 0.175,0.084 0.032,-0.001 0.032,-0.001 0.037,0.002 0,0.001 0,0.003 -0.001,0.005 -0.027,-0.002 -0.066,0.027 -0.089,0.016 -0.007,0 -0.108,-0.004 -0.123,0.011 -0.031,-0.003 -0.062,-0.006 -0.094,-0.008 -0.001,-0.006 -0.003,-0.012 -0.005,-0.017z"/>
   <path id="_129310248" class="fil3" d="M0.747843 0.686433c0.01,-0.004 0.01,-0.004 0.014,-0.012 0.006,0.006 0.005,0.009 0.003,0.019 -0.014,-0.002 -0.014,-0.002 -0.017,-0.007z"/>
   <path id="_128909024" class="fil4" d="M0.767843 2.92343c0.009,-0.013 0.017,-0.026 0.025,-0.038 0.035,-0.01 0.072,-0.013 0.108,-0.02 0.001,-0.002 0.002,-0.004 0.003,-0.005 0.001,0.001 0.002,0.002 0.003,0.004 0.094,-0.016 0.188,-0.032 0.281,-0.048 -0.002,0.022 -0.005,0.045 -0.008,0.068 -0.137,0.016 -0.274,0.032 -0.412,0.049 0,-0.004 0,-0.007 0,-0.01z"/>
   <path id="_130719824" class="fil5" d="M0.777843 0.676433c0.084,-0.012 0.169,-0.016 0.254,-0.022 0.015,0.003 0.029,0 0.046,0.004 0.19,-0.011 0.19,-0.011 0.368,-0.027 0.048,0.008 0.115,-0.01 0.164,-0.013 0.019,-0.015 0.058,-0.006 0.08,-0.004 0.343,-0.012 0.687,-0.035 1.029,0 0.07,-0.009 0.139,-0.024 0.201,-0.05 0.116,0.02 0.237,0.05 0.355,0.033 0.015,-0.018 0.035,-0.038 0.043,-0.059 0.043,0.007 0.085,0.012 0.129,0.013 0.011,0.026 0.018,0.039 0.02,0.068 0.009,0.006 0.056,0.021 0.064,0.009 0.241,0.008 0.48,0.016 0.721,0.016 0.021,0.002 0.041,0.004 0.061,0.007 0.019,-0.019 0.155,0.05 0.179,0.06 0.054,0 0.074,0.017 0.078,0.068 0.006,0.012 0.036,0.044 0.033,0.055 -0.047,0.004 -0.149,-0.002 -0.183,-0.036 -0.022,-0.001 -0.081,-0.002 -0.101,-0.018 -0.124,0.027 -0.261,-0.005 -0.387,0.001 -0.012,-0.008 -0.021,-0.001 -0.031,-0.007 -0.001,0.002 -0.002,0.004 -0.004,0.006 -0.006,-0.005 -0.012,-0.01 -0.019,-0.015 -0.012,0.006 -0.012,0.006 -0.044,0.009 0,0.007 -0.001,0.014 -0.002,0.021 -0.016,0.007 -0.027,0.007 -0.041,-0.004 -0.009,0.003 -0.018,0.009 -0.028,0.007 -0.002,0.002 -0.004,0.004 -0.007,0.007 -0.007,-0.007 -0.018,-0.01 -0.023,-0.017 -0.002,0.003 -0.004,0.006 -0.006,0.009 -0.056,-0.008 -0.109,-0.009 -0.163,-0.008 -0.099,-0.024 -0.202,0.016 -0.299,-0.001 -0.023,0.011 -0.045,-0.007 -0.068,-0.002 -0.001,-0.003 -0.002,-0.006 -0.004,-0.008 -0.018,0.018 -0.135,-0.03 -0.166,-0.034 -0.027,0.007 -0.031,0.026 -0.05,0.043 -0.032,0.009 -0.076,0.008 -0.112,0.008 -0.011,-0.014 -0.05,-0.004 -0.065,-0.003 -0.013,-0.013 -0.043,0.006 -0.054,-0.005 -0.016,0.004 -0.086,0.013 -0.104,0.004 -0.004,0.002 -0.008,0.004 -0.013,0.007 -0.001,-0.003 -0.003,-0.005 -0.005,-0.007 -0.014,0 -0.113,-0.001 -0.118,0.01 -0.021,-0.001 -0.041,-0.006 -0.059,0.003 -0.011,-0.005 -0.027,0.003 -0.041,0 0,0.003 -0.001,0.006 -0.002,0.009 -0.001,-0.003 -0.003,-0.006 -0.005,-0.009 -0.021,0.002 -0.042,0.004 -0.063,0.006 -0.001,0.001 -0.002,0.003 -0.003,0.005 -0.007,-0.004 -0.019,-0.004 -0.028,-0.004 -0.017,0.014 -0.025,0.006 -0.048,0.004 -0.005,0.01 -0.018,0.002 -0.03,0.005 -0.001,0.003 -0.002,0.006 -0.003,0.01 -0.001,-0.002 -0.002,-0.004 -0.003,-0.006 -0.027,-0.003 -0.044,0.005 -0.064,0.01 -0.001,-0.004 -0.003,-0.007 -0.005,-0.01 -0.023,0.009 -0.081,0.013 -0.105,0.007 -0.003,0.004 -0.007,0.009 -0.011,0.014 -0.008,-0.002 -0.011,-0.008 -0.014,-0.015 -0.001,0.004 -0.003,0.008 -0.005,0.013 -0.001,-0.003 -0.002,-0.006 -0.004,-0.008 -0.002,0.003 -0.004,0.007 -0.006,0.011 -0.003,-0.004 -0.006,-0.008 -0.01,-0.011 -0.004,0.011 -0.004,0.011 -0.01,0.013 -0.009,-0.009 -0.017,-0.009 -0.03,-0.01 -0.005,0.008 -0.01,0.01 -0.019,0.012 0.001,-0.003 0.002,-0.006 0.003,-0.009 -0.002,-0.003 -0.005,-0.005 -0.008,-0.007 -0.005,0.005 -0.028,0.014 -0.036,0.014 0.001,-0.002 0.001,-0.004 0.001,-0.006 -0.003,0 -0.007,0 -0.011,0.001 -0.006,0.012 -0.013,0.004 -0.02,0.013 -0.01,-0.02 -0.224,-0.008 -0.275,-0.008 -0.086,-0.014 -0.19,0.003 -0.277,0.007 -0.012,0.012 -0.037,0.007 -0.051,0 -0.001,0.001 -0.003,0.002 -0.005,0.003 -0.016,-0.016 -0.04,-0.016 -0.054,-0.037 0.002,-0.005 0.002,-0.005 -0.005,-0.014 -0.004,0.008 -0.004,0.008 -0.006,0.006 0.001,-0.003 0.002,-0.006 0.003,-0.008 -0.052,-0.045 -0.069,-0.051 -0.135,-0.034 -0.045,0 -0.087,-0.019 -0.131,-0.03 -0.038,-0.022 -0.083,-0.048 -0.128,-0.044 -0.013,-0.006 -0.019,-0.008 -0.025,-0.021z"/>
   <path id="_129231768" class="fil2" d="M1.00184 1.14043c0.057,-0.029 0.078,-0.043 0.083,-0.043 0.045,-0.06 0.089,-0.126 0.142,-0.179 0.023,0 0.045,-0.005 0.068,-0.011 0.028,0.004 0.099,0.018 0.123,-0.006 0.034,-0.001 0.067,-0.001 0.1,-0.001 -0.001,0.021 0.009,0.028 0.025,0.038 -0.004,0.028 -0.024,0.045 -0.039,0.067 -0.004,0.025 -0.004,0.025 -0.01,0.039 -0.015,0.004 -0.015,0.004 -0.041,0.004 -0.027,-0.013 -0.069,0.049 -0.082,0.065 0.003,0.01 0.003,0.01 0.011,0.016 0.017,-0.022 0.039,-0.043 0.06,-0.061 0.025,-0.003 0.05,-0.005 0.075,-0.007 0.008,0.01 0.008,0.01 0.02,0.016 0.004,-0.008 0.013,-0.006 0.02,-0.006 0.003,-0.004 0.005,-0.007 0.007,-0.01 -0.002,-0.004 -0.004,-0.007 -0.006,-0.01 -0.003,-0.001 -0.006,-0.001 -0.009,-0.001 -0.001,0.005 -0.002,0.01 -0.003,0.015 -0.01,-0.01 -0.012,-0.014 -0.025,-0.018 0,-0.042 0.038,-0.072 0.05,-0.11 -0.013,-0.011 -0.019,-0.018 -0.017,-0.036 0.092,-0.003 0.184,-0.005 0.275,-0.007 0.164,-0.01 0.329,-0.019 0.494,-0.023 0.046,-0.013 0.106,-0.02 0.154,-0.016 0.004,-0.002 0.008,-0.003 0.012,-0.004 0.11,0 0.23,-0.007 0.299,-0.007 0.208,0.01 0.208,0.01 0.222,0.014 -0.011,0.042 -0.023,0.083 -0.03,0.125 -0.012,0.024 -0.003,0.047 -0.006,0.076 0.004,0 0.008,0.001 0.011,0.002 0.013,-0.013 0.012,-0.036 0.013,-0.053 0.007,-0.002 0.014,-0.003 0.021,-0.004 0,-0.003 0,-0.006 -0.001,-0.009 -0.003,-0.002 -0.007,-0.003 -0.011,-0.004 -0.003,-0.032 -0.003,-0.032 0,-0.043 0.008,-0.004 0.03,-0.004 0.033,-0.007 -0.013,-0.006 -0.015,-0.009 -0.028,-0.011 0.017,-0.042 0.033,-0.084 0.049,-0.125 0.064,-0.005 0.144,0.035 0.211,0.039 0.165,-0.015 0.334,-0.006 0.501,-0.006 0,0.016 -0.012,0.03 -0.02,0.043 0.021,0.013 0.064,0.022 0.064,0.05 -0.012,0.011 -0.012,0.011 -0.041,0.026 -0.015,0.023 -0.02,0.05 -0.02,0.078 0.01,0.003 0.01,0.003 0.061,0 0.004,-0.013 0.008,-0.022 0.006,-0.036 -0.028,-0.014 -0.028,-0.014 -0.038,-0.016 0,-0.02 0.044,-0.042 0.062,-0.047 0.002,-0.008 0.003,-0.015 0.004,-0.022 -0.019,-0.026 -0.059,-0.011 -0.075,-0.044 0.008,-0.02 0.021,-0.019 0.038,-0.018 0,-0.006 -0.001,-0.011 -0.002,-0.016 0.1,0 0.196,-0.01 0.296,0.005 0.118,0 0.118,0 0.122,-0.003 0.054,-0.005 0.109,-0.017 0.163,-0.01 0.045,0.017 0.107,0.028 0.142,0.063 0.043,0.002 0.084,0 0.127,-0.003 0.04,-0.013 0.097,-0.037 0.138,-0.027 0.011,0.023 0.013,0.033 0.013,0.06 -0.005,-0.003 -0.01,-0.005 -0.016,-0.007 -0.001,0.001 -0.002,0.002 -0.003,0.004 0.008,0.013 0.016,0.018 0.02,0.027 -0.001,0.023 0.003,0.044 0.003,0.066 -0.014,0.015 -0.029,0.03 -0.044,0.045 -0.057,0.035 -0.096,0.025 -0.08,0.098 -0.017,0.01 -0.035,0.02 -0.053,0.03 -0.024,-0.005 -0.041,-0.012 -0.065,-0.006 -0.012,0.025 -0.012,0.044 -0.013,0.072 -0.069,0.001 -0.136,-0.001 -0.205,-0.012 -0.001,0.002 -0.002,0.005 -0.003,0.008 -0.008,-0.024 -0.065,-0.017 -0.087,-0.013 -0.001,0.002 -0.002,0.004 -0.003,0.007 -0.001,-0.005 -0.002,-0.009 -0.003,-0.013 -0.006,-0.002 -0.013,-0.004 -0.02,-0.006 -0.001,0.003 -0.002,0.006 -0.004,0.009 -0.005,-0.01 -0.022,-0.002 -0.033,-0.002 -0.001,0.001 -0.002,0.003 -0.004,0.005 -0.001,-0.002 -0.002,-0.004 -0.004,-0.006 -0.004,0.001 -0.008,0.002 -0.012,0.004 -0.001,-0.003 -0.003,-0.005 -0.005,-0.007 -0.005,0.001 -0.01,0.002 -0.016,0.004 -0.001,-0.003 -0.003,-0.005 -0.005,-0.007 -0.012,0.001 -0.034,0.005 -0.044,-0.001 -0.002,0.01 -0.002,0.01 -0.006,0.01 0,-0.003 0,-0.006 -0.001,-0.009 -0.002,0.003 -0.004,0.006 -0.007,0.009 -0.001,-0.002 -0.002,-0.004 -0.004,-0.006 -0.002,0.002 -0.004,0.004 -0.006,0.006 -0.001,-0.003 -0.002,-0.005 -0.003,-0.007 -0.012,-0.001 -0.054,0.004 -0.061,-0.003 -0.002,0.002 -0.004,0.004 -0.006,0.006 -0.001,-0.002 -0.002,-0.004 -0.004,-0.006 -0.002,0.002 -0.004,0.004 -0.006,0.006 0,-0.002 -0.001,-0.004 -0.002,-0.006 -0.017,-0.002 -0.027,0.001 -0.071,0.001 -0.001,0.003 -0.002,0.006 -0.003,0.009 -0.008,-0.017 -0.259,-0.007 -0.3,-0.006 -0.009,-0.006 -0.099,0 -0.104,0.003 -0.014,0.001 -0.041,-0.006 -0.049,-0.003 -0.001,-0.002 -0.002,-0.004 -0.004,-0.006 -0.002,0.004 -0.004,0.008 -0.007,0.012 -0.001,-0.006 -0.002,-0.011 -0.003,-0.016 -0.013,0.002 -0.016,0.004 -0.023,0.014 -0.002,-0.003 -0.005,-0.005 -0.008,-0.007 -0.005,0.002 -0.005,0.002 -0.009,0.01 -0.005,0 -0.01,0 -0.015,0 -0.005,-0.008 -0.005,-0.008 -0.011,-0.011 -0.001,0.003 -0.002,0.007 -0.004,0.011 -0.003,0 -0.006,0 -0.01,0 -0.002,-0.004 -0.004,-0.008 -0.007,-0.011 0,0.003 -0.001,0.006 -0.002,0.01 -0.003,0 -0.006,0 -0.01,0 0.003,-0.003 0.005,-0.006 0.007,-0.009 -0.042,0 -0.052,0.045 -0.072,0.073 -0.042,0.015 -0.127,0.033 -0.158,-0.009 -0.002,0.001 -0.004,0.002 -0.007,0.003 -0.101,-0.019 -0.214,-0.044 -0.317,-0.044 -0.034,-0.02 -0.066,-0.003 -0.102,-0.003 -0.024,0.036 -0.095,0.016 -0.134,0.05 -0.031,-0.01 -0.125,-0.078 -0.162,-0.054 0.013,0.009 0.014,0.014 0.014,0.03 -0.024,0.006 -0.064,0.025 -0.09,0.017 -0.006,0.003 -0.012,0.006 -0.019,0.009 0,-0.003 0,-0.006 -0.001,-0.008 -0.016,0.009 -0.016,0.009 -0.042,0.016 -0.001,-0.003 -0.002,-0.005 -0.004,-0.007 -0.007,0.001 -0.007,0.001 -0.008,0.004 -0.003,-0.004 -0.006,-0.007 -0.01,-0.01 -0.003,0.003 -0.003,0.003 -0.003,0.012 -0.005,-0.008 -0.007,-0.009 -0.016,-0.009 0,-0.005 0,-0.009 0,-0.013 -0.018,-0.012 -0.04,-0.019 -0.04,-0.047 0.011,0.003 0.011,0.003 0.02,0.013 0.002,-0.001 0.004,-0.002 0.005,-0.003 0,-0.005 -0.001,-0.009 -0.002,-0.013 -0.011,0 -0.023,-0.01 -0.031,-0.017 -0.104,-0.02 -0.221,-0.008 -0.321,-0.037 -0.071,-0.01 -0.071,-0.01 -0.13,-0.014 0.003,-0.008 0.006,-0.016 0.009,-0.023 -0.001,-0.003 -0.002,-0.006 -0.004,-0.008 -0.027,0 -0.023,0.035 -0.052,0.026 0,-0.041 0.039,-0.066 0.039,-0.106 -0.006,0 -0.012,0.001 -0.018,0.002 -0.02,0.032 -0.04,0.064 -0.06,0.097 -0.011,0.001 -0.073,0.006 -0.077,0.002 -0.001,0.002 -0.003,0.004 -0.005,0.006 -0.001,-0.002 -0.002,-0.004 -0.003,-0.006 -0.032,0 -0.051,-0.004 -0.08,0.007 -0.021,-0.004 -0.04,0.002 -0.06,-0.003 -0.001,0.002 -0.003,0.004 -0.005,0.007 -0.004,-0.002 -0.008,-0.004 -0.012,-0.006 -0.016,0.01 -0.05,0.005 -0.07,0.006 0,0.001 0,0.002 -0.001,0.004 -0.013,0 -0.019,-0.004 -0.029,-0.01 -0.02,0.004 -0.044,0.016 -0.063,0.016 -0.003,0.007 -0.007,0.015 -0.011,0.023 -0.003,-0.001 -0.003,-0.006 -0.007,-0.005 -0.01,0.021 -0.028,0.031 -0.039,0.054 -0.001,-0.002 -0.002,-0.004 -0.004,-0.005 -0.005,0.009 -0.01,0.018 -0.015,0.028 -0.002,-0.001 -0.004,-0.002 -0.007,-0.002 -0.008,0.013 -0.023,0.026 -0.023,0.042 -0.006,-0.001 -0.012,-0.002 -0.018,-0.002 0,0.004 -0.001,0.008 -0.002,0.012 -0.009,0 -0.014,-0.002 -0.019,-0.009 -0.004,0 -0.009,0 -0.014,0.001 -0.006,-0.006 -0.008,-0.007 -0.018,-0.007 0,0.002 0,0.004 -0.001,0.007 -0.01,-0.01 -0.009,-0.009 -0.023,-0.011 -0.001,0.002 -0.002,0.004 -0.003,0.006 0,-0.009 -0.014,-0.01 -0.02,-0.013 -0.006,-0.049 -0.015,-0.102 -0.028,-0.15z"/>
   <path id="_129235264" class="fil3" d="M1.20784 2.86343c0.006,0.006 0.005,0.009 0.003,0.018 -0.001,-0.006 -0.002,-0.012 -0.003,-0.018z"/>
   <path id="_128711368" class="fil4" d="M1.38784 2.66043c0.009,-0.027 0.02,-0.052 0.022,-0.08 0.004,-0.009 0.016,-0.021 0.013,-0.031 0.014,-0.004 0.017,-0.003 0.032,0.001 -0.001,0.006 -0.002,0.013 -0.003,0.02 0.004,0 0.007,0 0.01,0 -0.002,0.01 -0.004,0.02 -0.007,0.03 -0.015,0 -0.014,0.034 -0.031,0.039 0,0.002 0,0.004 0,0.007 -0.003,0.001 -0.006,0.002 -0.009,0.004 0,0.002 0,0.004 0,0.006 -0.002,0.001 -0.004,0.002 -0.007,0.003 -0.001,0.003 -0.002,0.007 -0.003,0.011 -0.004,0.001 -0.008,0.002 -0.013,0.003 -0.001,-0.005 -0.002,-0.009 -0.004,-0.013z"/>
   <path id="_130123504" class="fil4" d="M1.44484 2.52043c0.005,0.001 0.005,0.001 0.034,-0.009 0.001,0.006 0.001,0.006 -0.006,0.016 -0.008,0 -0.016,0.001 -0.025,0.002 -0.001,-0.003 -0.002,-0.006 -0.003,-0.009z"/>
   <path id="_130124248" class="fil4" d="M1.48484 2.51043c0.001,-0.004 0.002,-0.007 0.003,-0.01 0.048,-0.009 0.123,-0.03 0.151,-0.072 0.003,0 0.005,0 0.007,0 0,-0.008 0.044,-0.061 0.048,-0.059 0.02,-0.081 0.149,-0.055 0.2,-0.117 0.005,-0.029 0.006,-0.058 0.007,-0.086 0.03,-0.03 0.075,-0.052 0.114,-0.066 -0.023,0.071 -0.051,0.139 -0.082,0.206 -0.009,0.007 -0.017,0.022 -0.023,0.024 0,-0.002 0,-0.004 0,-0.006 -0.042,0.012 -0.086,0.017 -0.127,0.036 -0.048,0.056 -0.115,0.121 -0.191,0.131 -0.013,0.015 -0.06,0.04 -0.081,0.036 -0.008,-0.006 -0.017,-0.012 -0.026,-0.017z"/>
   <path id="_130086888" class="fil6" d="M2.20484 3.01343c0.013,-0.02 0.024,-0.074 0.028,-0.097 0.029,-0.08 0.032,-0.165 0.074,-0.241 0.058,-0.031 0.164,-0.067 0.23,-0.067 0.025,0.041 0.074,0.04 0.117,0.047 0.015,0.023 0.024,0.147 0.027,0.175 0.014,0.053 0.043,0.128 0.032,0.181 -0.063,0.007 -0.108,0.061 -0.164,0.077 -0.039,-0.004 -0.039,-0.004 -0.054,-0.002 0,-0.004 0,-0.008 0,-0.012 -0.019,-0.006 -0.034,-0.004 -0.054,-0.003 -0.002,-0.005 -0.004,-0.009 -0.006,-0.013 -0.067,-0.013 -0.134,-0.034 -0.203,-0.034 -0.009,-0.004 -0.018,-0.008 -0.027,-0.011z"/>
   <path id="_130937880" class="fil7" d="M2.22184 1.25043c0.004,0.004 0.008,0.009 0.012,0.014 -0.01,-0.007 -0.01,-0.007 -0.012,-0.014z"/>
   <path id="_130941096" class="fil1 str0" d="M2.24184 2.99043c0.01,-0.031 0.02,-0.062 0.026,-0.094 0.002,-0.002 0.004,-0.003 0.006,-0.004 0.003,-0.022 0.003,-0.022 0.05,-0.176 0.033,-0.044 0.145,-0.058 0.193,-0.072 0.003,0.005 0.005,0.01 0.007,0.016 0.003,0.101 0.02,0.187 0.06,0.28 0,0.026 -0.105,0.088 -0.124,0.101 -0.015,-0.003 -0.015,-0.003 -0.042,-0.017 -0.055,-0.004 -0.123,-0.013 -0.176,-0.028 0,-0.002 0,-0.004 0,-0.006z"/>
   <path id="_130118048" class="fil1" d="M2.25784 1.97643c0.006,-0.02 0.006,-0.02 0.014,-0.082 0.027,-0.021 0.069,-0.04 0.103,-0.044 0.004,-0.011 0.01,-0.02 0.019,-0.027 0.013,-0.066 0.026,-0.132 0.038,-0.197 0.003,0.001 0.005,0.002 0.007,0.003 0.001,0.058 0.037,0.152 0.003,0.204 -0.009,0.004 -0.018,0.008 -0.027,0.013 0,0.002 -0.001,0.004 -0.002,0.007 -0.003,0.001 -0.007,0.002 -0.011,0.003 0,0.002 0,0.004 0,0.007 -0.005,0.001 -0.011,0.002 -0.017,0.003 -0.004,0.009 -0.008,0.018 -0.013,0.027 -0.002,0 -0.004,0 -0.007,0 0,0.007 0,0.007 -0.003,0.007 0,-0.007 0,-0.007 -0.004,-0.007 -0.007,0.043 0.012,0.094 0.02,0.137 -0.043,-0.002 -0.043,-0.002 -0.116,0.003 -0.001,-0.019 -0.002,-0.038 -0.004,-0.057z"/>
   <path id="_129900632" class="fil8" d="M2.34484 2.08643c0.001,-0.006 0.002,-0.011 0.003,-0.016 0.014,0.001 0.014,0.001 0.034,-0.004 0,0.034 -0.021,0.083 -0.032,0.117 0,-0.06 0,-0.06 -0.005,-0.097z"/>
   <path id="_130941264" class="fil6" d="M2.37784 1.09343c0.01,-0.019 0.018,-0.035 0.023,-0.055 0.051,-0.025 0.052,-0.15 0.122,-0.15 0.08,0.04 0.174,0.044 0.262,0.052 0.013,0.006 0.02,0.011 0.035,0.011 0.005,0.011 0.064,0.049 0.08,0.057 0.015,0.026 -0.007,0.086 -0.007,0.118 -0.005,0.003 -0.005,0.003 -0.026,0.003 -0.012,0.012 -0.127,0.006 -0.161,0.009 -0.119,-0.01 -0.174,-0.01 -0.319,-0.024 -0.008,-0.004 -0.008,-0.012 -0.009,-0.021z"/>
   <path id="_129900656" class="fil9" d="M2.37784 1.92043c0.017,-0.002 0.017,-0.002 0.028,-0.007 0.001,-0.04 0.013,-0.041 0.046,-0.06 0,-0.003 0,-0.005 0,-0.007 0.03,-0.017 0.03,-0.035 0.048,-0.068 -0.007,-0.014 -0.015,-0.028 -0.023,-0.042 -0.003,-0.031 -0.006,-0.061 -0.01,-0.091 0.021,-0.009 0.048,-0.044 0.066,-0.044 0.036,0.041 0.026,0.067 0.024,0.124 0.016,0.081 0.021,0.165 0.028,0.248 -0.065,0.009 -0.122,0.026 -0.183,0.047 -0.008,-0.034 -0.016,-0.067 -0.024,-0.1z"/>
   <path id="_130528816" class="fil1" d="M2.41484 1.08043c0.037,-0.05 0.063,-0.111 0.1,-0.162 0.015,0 0.087,0.02 0.098,0.034 0.054,0.008 0.107,0.017 0.16,0.026 0.001,0.039 -0.009,0.077 -0.02,0.113 -0.065,0.003 -0.065,0.003 -0.336,0 0,-0.004 -0.001,-0.008 -0.002,-0.011z"/>
   <path id="_130355344" class="fil8" d="M2.42784 2.04043c0.01,-0.006 0.01,-0.006 0.02,-0.007 -0.001,0.008 -0.003,0.016 -0.005,0.024 -0.003,0.002 -0.007,0.004 -0.011,0.006 -0.001,-0.008 -0.002,-0.016 -0.004,-0.023z"/>
   <path id="_128868976" class="fil1" d="M2.46784 1.39043c0.019,-0.032 0.032,-0.061 0.057,-0.086 0.014,0.005 0.023,0.017 0.036,0.024 -0.01,0.03 -0.033,0.058 -0.051,0.083 -0.02,0 -0.029,-0.005 -0.042,-0.021z"/>
   <path id="_128869448" class="fil10" d="M2.50184 3.04643c0.04,-0.03 0.093,-0.062 0.115,-0.106 -0.045,-0.08 -0.048,-0.188 -0.059,-0.277 0.022,0.004 0.051,0.006 0.069,0.018 0.016,0.091 0.024,0.203 0.057,0.289 0,0.007 0,0.014 -0.001,0.021 -0.046,0.023 -0.092,0.047 -0.138,0.071 -0.017,-0.001 -0.017,-0.001 -0.041,-0.011 0,-0.002 -0.001,-0.004 -0.002,-0.005z"/>
   <path id="_129795712" class="fil7" d="M2.51784 1.02643c0.007,-0.011 0.007,-0.011 0.014,-0.013 0,0.006 0,0.013 0,0.02 -0.004,0 -0.009,0 -0.014,0 0,-0.003 0,-0.005 0,-0.007z"/>
   <path id="_128770280" class="fil9" d="M2.53184 1.41043c0.016,-0.008 0.056,-0.064 0.062,-0.082 0.056,-0.013 0.122,-0.054 0.171,-0.015 -0.022,0.014 -0.022,0.014 -0.036,0.017 -0.004,0.021 -0.009,0.042 -0.014,0.063 -0.003,0 -0.006,0.001 -0.01,0.002 -0.002,0.012 -0.005,0.024 -0.008,0.036 -0.044,0.016 -0.118,0 -0.165,-0.011 0,-0.004 0,-0.007 0,-0.01z"/>
   <path id="_128770568" class="fil9" d="M2.53184 1.48643c0.028,-0.048 0.063,-0.031 0.103,-0.011 0.006,0.018 0.01,0.025 0.004,0.043 -0.031,0.001 -0.059,0.004 -0.089,-0.005 -0.006,-0.009 -0.012,-0.018 -0.018,-0.027z"/>
   <path id="_128771072" class="fil11" d="M2.55484 2.00643c0.009,-0.001 0.018,-0.002 0.027,-0.003 -0.005,0.032 -0.005,0.032 -0.009,0.038 -0.005,0 -0.01,0.001 -0.015,0.002 -0.001,-0.013 -0.002,-0.025 -0.003,-0.037z"/>
   <path id="_128771288" class="fil9" d="M2.55784 1.54643c0.01,0.003 0.02,0.006 0.029,0.009 0,0.014 0.001,0.02 -0.013,0.02 -0.005,-0.01 -0.01,-0.02 -0.016,-0.029z"/>
   <path id="_130358744" class="fil12" d="M2.76184 1.32043c0.003,0.003 0.006,0.006 0.009,0.01 -0.001,0.003 -0.002,0.007 -0.003,0.011 -0.002,-0.007 -0.004,-0.014 -0.006,-0.021z"/>
   <path id="_128492488" class="fil10" d="M2.78784 1.07343c0.007,-0.027 0.014,-0.053 0.021,-0.079 0.02,0.008 0.04,0.017 0.059,0.026 -0.004,0.04 -0.008,0.046 -0.013,0.073 -0.021,-0.002 -0.042,-0.004 -0.063,-0.005 -0.001,-0.005 -0.002,-0.01 -0.004,-0.015z"/>
   <path id="_128491912" class="fil12" d="M3.25784 1.32643c0.012,-0.006 0.029,-0.011 0.029,0.008 -0.006,0.001 -0.012,0.002 -0.018,0.003 -0.001,0.002 -0.003,0.004 -0.005,0.006 -0.002,-0.006 -0.004,-0.012 -0.006,-0.017z"/>
   <path id="_128332408" class="fil12" d="M3.58184 2.85043c0.003,0.001 0.006,0.002 0.008,0.003 0,0.004 0,0.008 0,0.013 -0.002,-0.006 -0.005,-0.011 -0.008,-0.016z"/>
   <path id="_130748344" class="fil7" d="M3.59184 2.95343c0.003,0 0.005,0.001 0.007,0.002 0,0.004 0,0.008 0,0.013 -0.002,-0.005 -0.004,-0.01 -0.007,-0.015z"/>
   <path id="_128491672" class="fil12" d="M3.59784 2.90643c0.005,0.01 0.006,0.016 0.002,0.027 0,-0.009 -0.001,-0.018 -0.002,-0.027z"/>
   <path id="_129334712" class="fil13" d="M3.72784 2.74343c0.003,-0.002 0.005,-0.004 0.007,-0.006 0.016,0.016 0.012,0.032 0.012,0.054 -0.001,0.001 -0.003,0.002 -0.005,0.004 -0.005,-0.009 -0.005,-0.009 -0.014,-0.052z"/>
   <path id="_129334952" class="fil13" d="M3.74784 2.80343c0.012,-0.006 0.009,-0.027 0.014,-0.039 0.029,0.02 0.038,0.02 0.038,0.053 -0.007,0.001 -0.014,0.002 -0.021,0.004 0,0.004 0,0.008 -0.001,0.012 -0.009,-0.004 -0.018,-0.008 -0.027,-0.012 -0.001,-0.006 -0.002,-0.012 -0.003,-0.018z"/>
   <path id="_129334976" class="fil12" d="M3.77484 1.00643c0.001,-0.002 0.002,-0.004 0.003,-0.006 0.003,0 0.006,0 0.009,0.001 -0.001,0.004 -0.002,0.008 -0.003,0.013 -0.002,0 -0.004,0 -0.007,0 0,-0.003 -0.001,-0.006 -0.002,-0.008z"/>
   <path id="_128920536" class="fil12" d="M3.78184 2.82643c0.004,0 0.008,0 0.011,0 0.002,0.002 0.003,0.004 0.004,0.007 -0.005,0 -0.01,0 -0.015,0 0,-0.003 0,-0.005 0,-0.007z"/>
   <path id="_129880064" class="fil12" d="M3.79484 1.01043c0.004,0 0.007,0 0.01,0 0,0.004 0,0.008 0,0.013 -0.002,-0.001 -0.004,-0.002 -0.007,-0.003 -0.001,-0.004 -0.002,-0.007 -0.003,-0.01z"/>
   <path id="_128870232" class="fil13" d="M3.80484 2.80043c0.01,-0.003 0.008,-0.007 0.01,-0.014 0.003,0 0.005,0 0.007,0 0,0.009 -0.001,0.019 -0.002,0.029 -0.002,0 -0.004,0 -0.007,0.001 0.001,-0.004 -0.006,-0.009 -0.008,-0.016z"/>
   <path id="_129334448" class="fil14" d="M4.11784 1.08343c0.01,-0.033 0.043,-0.07 0.047,-0.1 0.003,0 0.005,0 0.007,0 0.012,-0.027 0.024,-0.054 0.036,-0.08 0.003,-0.001 0.006,-0.002 0.009,-0.002 0.004,0.002 0.008,0.005 0.011,0.008 -0.01,0.018 -0.022,0.034 -0.019,0.055 0.019,0.003 0.019,0.003 0.035,0.012 -0.002,0.003 -0.005,0.006 -0.008,0.009 -0.013,-0.003 -0.026,-0.006 -0.04,-0.008 -0.01,0.015 -0.017,0.025 -0.02,0.042 0.005,0.002 0.01,0.004 0.014,0.006 0,0.003 0,0.006 -0.001,0.01 -0.035,-0.017 -0.048,0.045 -0.056,0.066 -0.005,0 -0.01,0.001 -0.015,0.002 0,-0.007 0,-0.014 0,-0.02z"/>
   <path id="_128727152" class="fil7" d="M4.77484 0.890433c0.003,0 0.003,0 0.003,0.006 0.003,0 0.005,0 0.007,0 0,0.002 0,0.004 0,0.007 -0.002,-0.001 -0.005,-0.002 -0.008,-0.002 0,-0.004 -0.001,-0.008 -0.002,-0.011z"/>
  </g>
 </g>
</svg>
