<?xml version="1.0" encoding="UTF-8"?>
<!DOCTYPE svg PUBLIC "-//W3C//DTD SVG 1.1//EN" "http://www.w3.org/Graphics/SVG/1.1/DTD/svg11.dtd">
<!-- Creator: CorelDRAW -->
<svg xmlns="http://www.w3.org/2000/svg" xml:space="preserve" width="8.5in" height="11in" style="shape-rendering:geometricPrecision; text-rendering:geometricPrecision; image-rendering:optimizeQuality; fill-rule:evenodd; clip-rule:evenodd"
viewBox="0 0 8.5 11">
 <defs>
  <style type="text/css">
   <![CDATA[
    .str0 {stroke:#B86905;stroke-width:0.003}
    .fil4 {fill:black}
    .fil5 {fill:white}
    .fil6 {fill:#332B24}
    .fil0 {fill:#5E3812}
    .fil8 {fill:#78570A}
    .fil3 {fill:#823D0A}
    .fil2 {fill:#9E5205}
    .fil7 {fill:#AB8C0A}
    .fil1 {fill:#B86905}
   ]]>
  </style>
 </defs>
 <g id="Layer_x0020_1">
  <metadata id="CorelCorpID_0Corel-Layer"/>
  <g id="_130059248">
   <path id="_130086888" class="fil0" d="M4.8098 0.76648c-0.02,0.031 -0.031,0.057 -0.042,0.095 -0.005,0 -0.009,0 -0.013,-0.001 -0.019,0.055 -0.036,0.061 -0.091,0.067 0,0.034 0.063,0.042 0.06,0.088 -0.032,0.027 -0.077,0.049 -0.111,0.076 -0.031,-0.005 -0.062,-0.01 -0.093,-0.016 -0.018,0.008 -0.018,0.008 -0.069,0.046 -0.055,0.076 -0.074,0.046 -0.16,0.033 0.004,0.044 0.015,0.084 0.02,0.127 -0.004,0.002 -0.007,0.004 -0.01,0.006 0,0.024 0,0.024 0.007,0.067 -0.068,0.043 -0.123,0.097 -0.123,0.182 0.018,0.0499961 0.044,0.0739961 0.086,0.105996 0.028,-0.014 0.05,0.058 0.057,0.077 0.007,0.168 0.014,0.333 0.047,0.497 0.004,0.068 0.009,0.139 0.019,0.206 0.009,0.019 -0.003,0.041 -0.002,0.061 -0.007,0.041 0.001,0.086 -0.008,0.125 -0.044,0.029 -0.114,0.01 -0.161,0.033 -0.096,0 -0.195,0.017 -0.29,0.017 -0.058,0.007 -0.115,0.013 -0.172,0.019 -0.002,0.002 -0.003,0.004 -0.004,0.005 -0.011,-0.011 -0.166,0.008 -0.189996,0.009 -0.046,0.008 -0.113,0.029 -0.159,0.023 0,-0.059 0.059,-0.137 0.087,-0.186 0.014,-0.02 0.029,-0.04 0.044,-0.061 -0.003,-0.001 -0.006,-0.002 -0.009,-0.004 0.004,-0.022 0.02,-0.04 0.031,-0.059 0.0399961,-0.095 0.0749961,-0.194 0.102996,-0.293 0.014,-0.037 0.014,-0.037 0.028,-0.06 0.025,-0.007 0.056,-0.02 0.081,-0.023 0.002,-0.006 0.005,-0.012 0.008,-0.019 0.001,0.004 0.002,0.007 0.003,0.01 0.007,0.001 0.014,0.002 0.022,0.002 0.017,-0.017 0,-0.067 -0.004,-0.089 -0.002,0.002 -0.003,0.003 -0.004,0.004 -0.003,-0.006 -0.003,-0.006 -0.003,-0.028 0.001,0 0.003,0 0.005,0 -0.001,-0.059 -0.002,-0.118 -0.002,-0.178 -0.007,-0.037 -0.007,-0.037 -0.011,-0.044 0.004,-0.057 0.008,-0.072 0.011,-0.149996 -0.025,-0.05 0.005,-0.154 0.013,-0.207 0.007,-0.14 0.007,-0.14 0.005,-0.143 -0.029,-0.005 -0.114,-0.008 -0.125,-0.012 -0.011,0.008 -0.011,0.008 -0.013,0.006 -0.001,0.005 -0.001,0.009 -0.001,0.013 -0.002,0 -0.003,0 -0.004,0 -0.001,-0.004 -0.002,-0.008 -0.002,-0.013 -0.001,0.008 -0.002,0.016 -0.003,0.023 -0.002,-0.002 -0.003,-0.004 -0.004,-0.007 -0.006,0.015 -0.011,0.03 -0.023,0.042 -0.024,0.009 -0.024,0.009 -0.028,0.014 -0.002,-0.001 -0.004,-0.002 -0.006,-0.004 -0.189996,0.047 -0.402996,0.006 -0.594996,-0.007 -0.031,-0.008 -0.052,-0.011 -0.069,-0.039 -0.013,-0.005 -0.023,-0.012 -0.03,-0.024 -0.03,0.006 -0.071,-0.054 -0.102,-0.06 -0.022,-0.016 -0.04,0 -0.06,-0.01 -0.013,0.008 -0.02,0.006 -0.035,0.003 -0.031,0.001 -0.062,0.002 -0.092,0.003 -0.007,0.032 -0.013,0.064 -0.019,0.096 0,0.082 -0.037,0.156 -0.037,0.24 -0.02,0.117 -0.02,0.117 -0.031,0.208996 0.037,0.01 0.045,0.054 0.069,0.085 0.034,0.031 0.119,0.088 0.119,0.14 -0.011,0.036 -0.014,0.073 -0.014,0.11 -0.02,0.129 -0.028,0.27 -0.025,0.401 -0.004,0.024 -0.013,0.049 -0.024,0.071 -0.001,0.026 -0.001,0.052 -0.001,0.078 0.005,0.033 0.019,0.088 0.002,0.117 -0.133,0.019 -0.277,0.041 -0.411,0.027 -0.013,0.016 -0.017,0.016 -0.037,0.016 -0.001,-0.005 -0.002,-0.011 -0.003,-0.017 -0.039,-0.007 -0.075,-0.018 -0.112,-0.032 -0.007,-0.127 0.018,-0.267 0.031,-0.392 0.009,-0.056 0.018,-0.113 0.027,-0.17 0.018,-0.056 0.038,-0.215 0.018,-0.256 -0.002,0.006 -0.004,0.011 -0.005,0.016 -0.001,-0.007 -0.002,-0.015 -0.003,-0.023 0.013,-0.143 0.032,-0.284996 0.06,-0.425996 0.027,-0.185 0.027,-0.185 0.026,-0.193 -0.014,0 -0.001,-0.029 0.004,-0.037 -0.008,-0.016 -0.03,-0.005 -0.043,0 -0.035,-0.024 -0.07,-0.048 -0.104,-0.073 -0.026,0.004 -0.026,0.004 -0.08,0.003 -0.015,0.007 -0.015,0.007 -0.027,0.006 -0.001,0.002 -0.002,0.004 -0.003,0.006 -0.002,-0.002 -0.004,-0.004 -0.005,-0.006 -0.002,0.002 -0.004,0.004 -0.005,0.006 -0.008,-0.016 -0.044,0.012 -0.058,-0.002 -0.002,0.002 -0.004,0.003 -0.005,0.004 -0.015,-0.005 -0.033,0.003 -0.048,0.007 -0.024,0.003 -0.047,0.005 -0.07,0.007 -0.076,-0.008 -0.161,0.01 -0.239,0.019 -0.029,0.006 -0.14,0.007 -0.154,0.024 -0.003,-0.001 -0.006,-0.002 -0.009,-0.004 -0.003,0.004 -0.005,0.008 -0.007,0.011 -0.021,0 -0.038,0.007 -0.06,0.005 -0.003,0.007 -0.003,0.007 -0.012,0.011 -0.001,-0.001 -0.002,-0.002 -0.003,-0.004 -0.013,0.004 -0.0489961,0.009 -0.0579961,0 -0.005,0.004 -0.033,0.007 -0.057,0.014 -0.006,-0.006 -0.02,0.004 -0.027,0.006 -0.008,0.016 -0.117,0.074 -0.142,0.07 -0.002,-0.005 -0.004,-0.011 -0.006,-0.017 -0.085,0.012 -0.17,0.024 -0.254,0.035 -0.003,-0.003 -0.006,-0.007 -0.008,-0.011 0.002,-0.034 -0.034,-0.053 -0.062,-0.036 -0.002,-0.001 -0.003,-0.002 -0.004,-0.003 -0.005,0.004 -0.009,0.007 -0.013,0.01 -0.008,-0.008 -0.097,0 -0.112,0.003 -0.028,0 -0.176,-0.015 -0.192,0.001 -0.001,-0.001 -0.002,-0.003 -0.003,-0.005 -0.013,0.013 -0.069,0.004 -0.09,0 -0.01,-0.016 -0.019,-0.032 -0.028,-0.049 -0.027,-0.013 -0.02,-0.08 -0.043,-0.103 -0.009,-0.026 -0.029,-0.059 -0.029,-0.087 -0.004,-0.001 -0.008,-0.002 -0.011,-0.003 -0.001,-0.002 -0.002,-0.004 -0.003,-0.007 -0.004,0 -0.007,0 -0.01,-0.001 0.001,-0.006 0.002,-0.012 0.004,-0.019 0.002,-0.001 0.005,-0.002 0.008,-0.003 0,-0.003 0.001,-0.007 0.002,-0.011 0.002,0.001 0.004,0.002 0.006,0.003 0.001,-0.004 0.002,-0.008 0.004,-0.013 0.003,-0.001 0.007,-0.002 0.011,-0.003 0.066,-0.083 0.123,-0.166 0.159,-0.264 0.002,-0.013 0.004,-0.026 0.007,-0.039 0.103,-0.016 0.201,-0.029 0.305,-0.038 0.018,0.018 0.081,-0.02 0.109,-0.006 0.008,0 0.073,-0.006 0.08,0.001 0.002,-0.002 0.004,-0.004 0.006,-0.006 0.001,0.002 0.002,0.004 0.003,0.005 0.025,-0.01 0.061,-0.015 0.087,-0.007 0.145,-0.021 0.298,-0.035 0.444996,-0.05 0.123,-0.022 0.252,-0.037 0.376,-0.053 0.065,-0.016 0.13,-0.032 0.195,-0.049 0.001,-0.003 0.002,-0.006 0.004,-0.01 0.045,0.007 0.09,0.003 0.136,0.003 0.051,-0.018 0.148,0.021 0.197,0.033 0.014,0.022 0.118,0.001 0.136,0.013 0.007,-0.007 0.038,0.001 0.048,0.003 0.047,-0.003 0.086,0.001 0.107,0 0.013,0.003 0.315,0.011 0.319,0.014 0.011,-0.004 0.069,-0.007 0.081,-0.004 0.149,-0.006 0.149,-0.006 0.158,-0.01 0.02,0.005 0.085,0.011 0.101,-0.005 0.007,0.015 0.053,0.005 0.067,-0.002 0.009,0.009 0.048,-0.001 0.061,-0.003 0.029,0.014 0.078,-0.031 0.105,-0.013 0,-0.003 0.001,-0.006 0.002,-0.009 0.027,0.002 0.052,0.002 0.078,-0.004 0.0639961,0.007 0.129996,-0.007 0.192996,-0.003 0.002,-0.002 0.004,-0.005 0.006,-0.008 0.045,0.005 0.096,0.004 0.14,0.004 0.002,-0.001 0.004,-0.002 0.007,-0.004 0.001,0.003 0.002,0.006 0.004,0.008 0,-0.003 0.001,-0.006 0.002,-0.009 0.035,0.005 0.092,0.01 0.126,0.001 0.042,0.016 0.097,0.004 0.14,-0.003 0.051,0.006 0.099,0.037 0.147,0.037 0.007,0.005 0.037,0.029 0.048,0.024 0.035,0.035 0.104,0.042 0.136,0.079 0.028,0.015 0.028,0.015 0.078,0.034 0.033,0.056 0.144,0.08 0.196,0.113 0.004,0.008 0.004,0.008 0.006,0.028z"/>
   <path id="_130941264" class="fil1" d="M4.7268 0.76348c-0.013,0.006 -0.03,0.007 -0.039,0.016 -0.001,-0.001 -0.002,-0.003 -0.002,-0.005 -0.026,0 -0.048,0.013 -0.075,0.01 -0.001,0.002 -0.002,0.004 -0.003,0.005 -0.002,-0.001 -0.003,-0.002 -0.004,-0.004 -0.014,0.009 -0.039,0.004 -0.057,0.005 -0.002,0.002 -0.003,0.004 -0.004,0.005 -0.017,-0.005 -0.074,-0.007 -0.092,-0.004 -0.239,-0.03 -0.239,-0.03 -0.271,-0.03 -0.045,0.007 -0.094,-0.018 -0.14,0.005 -0.001,-0.002 -0.002,-0.004 -0.002,-0.007 -0.039,0.009 -0.083,-0.016 -0.12,0.002 -0.017,-0.017 -0.156,0.012 -0.198,0.004 -0.197996,0.004 -0.398996,0.008 -0.596996,0.003 -0.011,0.002 -0.022,0.003 -0.033,0.004 -0.013,-0.004 -0.213,-0.01 -0.224,-0.014 -0.027,-0.001 -0.088,-0.016 -0.11,0 -0.005,-0.002 -0.009,-0.004 -0.013,-0.006 -0.021,0.002 -0.077,-0.004 -0.23,-0.008 -0.01,0.01 -0.087,0 -0.109,0.006 -0.001,0.003 -0.002,0.006 -0.003,0.009 -0.001,-0.003 -0.002,-0.006 -0.003,-0.009 -0.036,-0.005 -0.036,-0.005 -0.064,-0.003 -0.01,0.01 -0.033,-0.001 -0.047,-0.003 -0.002,0.002 -0.003,0.003 -0.004,0.004 -0.01,-0.003 -0.019,-0.01 -0.028,-0.01 -0.011,0.022 -0.062,0.023 -0.084,0.022 -0.021,0.021 -0.136,0.003 -0.179,0.015 -0.008,-0.001 -0.016,-0.002 -0.024,-0.004 -0.002,0.003 -0.004,0.005 -0.005,0.007 -0.009,-0.001 -0.018,-0.002 -0.027,-0.004 -0.011,0.011 -0.091,-0.001 -0.108,-0.003 -0.006,0.003 -0.006,0.003 -0.212,0.01 -0.02,-0.002 -0.037,-0.002 -0.057,0.004 -0.061,-0.008 -0.13,-0.004 -0.192,-0.005 -0.001,0.002 -0.002,0.004 -0.002,0.006 -0.004,-0.002 -0.007,-0.004 -0.01,-0.007 -0.005,0.01 -0.022,-0.001 -0.033,0.006 -0.0249961,-0.008 -0.0579961,0.006 -0.0849961,0.007 -0.016,-0.005 -0.032,-0.007 -0.05,-0.007 -0.031,-0.003 -0.062,0 -0.093,-0.004 -0.079,0.018 -0.163,-0.011 -0.24,0.008 -0.012,0.034 -0.012,0.034 -0.014,0.054 -0.049,0.016 -0.128,-0.042 -0.173,-0.058 -0.007,-0.007 -0.007,-0.007 -0.052,-0.024 -0.011,-0.017 -0.017,-0.027 -0.035,-0.036 -0.005,0.003 -0.01,0.005 -0.015,0.007 -0.044,-0.008 -0.092,0.033 -0.133,0.016 -0.02,0.004 -0.02,0.004 -0.026,0.01 0,-0.036 0.034,-0.053 0.066,-0.06 0.09,0 0.178,-0.026 0.267,-0.03 0.132,-0.022 0.278,-0.029 0.412,-0.026 0.059,-0.023 0.149,-0.025 0.211996,-0.031 0.23,-0.011 0.453,-0.064 0.679,-0.1 0.256,0 0.504,0.053 0.761,0.04 0.102,0.003 0.205,0.007 0.307,0.007 0.005,-0.002 0.01,-0.004 0.016,-0.007 0.211,-0.005 0.423,-0.022 0.633996,-0.03 0.007,-0.004 0.075,-0.006 0.096,-0.01 0.062,-0.001 0.124,-0.002 0.187,-0.003 0.012,-0.012 0.153,-0.009 0.184,-0.007 0.025,0.013 0.05,0.025 0.076,0.037 0.03,0.01 0.061,0.019 0.078,0.047 0.028,-0.014 0.065,0.025 0.094,0.028 0,0.003 0,0.005 0.001,0.007 -0.03,-0.005 -0.059,-0.01 -0.088,-0.016 0,0.005 0,0.009 0,0.013 -0.012,0.004 -0.023,0.012 -0.03,0.021 -0.023,0.001 -0.045,0.002 -0.067,0.002 -0.001,0.004 -0.002,0.008 -0.003,0.011 0.025,0.015 0.082,0.016 0.104,-0.006 0.055,0.005 0.133,0.007 0.19,0.023 0.017,0.012 0.035,0.024 0.053,0.036 0.02,0.01 0.081,0.036 0.092,0.059z"/>
   <path id="_129795712" class="fil2" d="M4.7198 0.85648c-0.033,0.038 -0.066,0.045 -0.115,0.056 0.027,0.032 0.049,0.053 0.063,0.092 -0.026,0.017 -0.051,0.034 -0.076,0.05 -0.109,-0.006 -0.109,-0.006 -0.154,-0.004 -0.019,0.031 -0.038,0.061 -0.057,0.091 -0.033,0 -0.076,-0.006 -0.102,-0.026 -0.041,-0.005 -0.041,-0.005 -0.206,-0.008 -0.033,0.007 -0.06,0.028 -0.093,0.038 -0.1,0 -0.2,0 -0.3,-0.001 -0.004,-0.004 -0.008,-0.008 -0.012,-0.013 -0.015,0.01 -0.022,0.014 -0.041,0.016 -0.013,0.027 -0.013,0.027 -0.0389961,0.064 -0.048,0.01 -0.086,0.01 -0.136,0.007 0.02,-0.044 0.049,-0.073 0.081,-0.11 0.012,-0.028 0,-0.052 -0.022,-0.068 -0.007,-0.015 -0.011,-0.032 -0.026,-0.039 -0.003,0.001 -0.005,0.002 -0.007,0.003 0,0.026 0.02,0.051 0.024,0.075 -0.031,0.042 -0.062,0.084 -0.082,0.132 -0.281,-0.023 -0.281,-0.023 -0.403,-0.037 -0.008,-0.01 -0.008,-0.01 -0.022,-0.018 0,-0.002 0,-0.005 0,-0.008 0.007,-0.006 0.015,-0.012 0.023,-0.019 0,-0.032 -0.026,-0.049 0.007,-0.076 0.014,-0.032 0.025,-0.062 0.031,-0.096 -0.015,0 -0.018,0.022 -0.023,0.022 -0.002,-0.003 -0.003,-0.006 -0.004,-0.009 -0.014,0.032 -0.028,0.064 -0.041,0.096 0,0.033 0.004,0.046 -0.019,0.069 -0.001,-0.002 -0.001,-0.004 -0.001,-0.007 -0.005,-0.001 -0.01,-0.002 -0.014,-0.004 0,-0.002 0,-0.005 0,-0.008 -0.007,-0.004 -0.007,-0.004 -0.012,-0.003 -0.002,-0.003 -0.004,-0.006 -0.006,-0.009 -0.002,0.002 -0.004,0.004 -0.005,0.005 -0.029,-0.044 -0.158,-0.062 -0.201,-0.041 -0.043,0 -0.087,0.005 -0.13,0.001 -0.021,-0.032 -0.231,-0.005 -0.268,-0.004 -0.004,0.008 -0.013,0.006 -0.021,0.005 -0.001,0.003 -0.002,0.006 -0.003,0.008 -0.004,0.001 -0.008,0.001 -0.011,0.001 0.008,-0.094 0.008,-0.094 0.005,-0.1 -0.012,-0.001 -0.012,-0.001 -0.017,0.003 -0.002,-0.001 -0.004,-0.002 -0.005,-0.004 -0.006,0.037 -0.008,0.075 -0.01,0.113 -0.007,-0.001 -0.014,-0.002 -0.02,-0.003 -0.001,0.002 -0.002,0.004 -0.003,0.006 -0.025,-0.007 -0.056,-0.008 -0.079,-0.02 -0.04,-0.057 -0.177,-0.029 -0.244,-0.024 -0.002,0.002 -0.003,0.004 -0.004,0.005 -0.055,-0.011 -0.155,0.021 -0.209,0.03 -0.027,-0.003 -0.064,0.007 -0.087,0 -0.048,0.013 -0.098,0.005 -0.145,0.02 -0.03,0.002 -0.06,0.004 -0.089,0.006 -0.025,0.009 -0.073,0.021 -0.0959961,0.01 -0.008,0.008 -0.015,0.007 -0.027,0.006 0,-0.037 0.008,-0.076 0.007,-0.113 0.012,-0.02 0.027,-0.039 0.027,-0.063 -0.032,0.022 -0.052,0.054 -0.049,0.093 -0.016,0.01 -0.017,0.058 -0.019,0.075 -0.012,-0.001 -0.017,-0.011 -0.025,-0.014 -0.053,0.028 -0.103,0.062 -0.154,0.096 -0.055,-0.003 -0.137,-0.01 -0.187,0.017 -0.003,-0.001 -0.006,-0.002 -0.009,-0.004 0.024,-0.048 0.098,-0.072 0.105,-0.125 0.002,0 0.004,0 0.007,0 0,0.004 0,0.008 0,0.012 0.021,-0.024 0.043,-0.048 0.065,-0.072 -0.006,-0.047 -0.082,-0.143 -0.044,-0.181 0.063,0.003 0.128,-0.001 0.191,-0.003 0.001,-0.002 0.002,-0.004 0.003,-0.006 0.007,0.014 0.166996,-0.005 0.184996,-0.006 -0.026,0.041 -0.007,0.044 0.018,0.075 0.007,0.026 0.007,0.026 0.013,0.034 -0.002,-0.039 -0.01,-0.063 -0.006,-0.104 0.026,-0.005 0.047,-0.008 0.072,0 0.109,-0.007 0.109,-0.007 0.206,-0.009 -0.001,0.024 -0.007,0.042 -0.019,0.062 -0.018,0.013 -0.018,0.021 -0.02,0.041 0.021,0.009 0.051,-0.042 0.064,-0.056 0.001,-0.014 0.002,-0.028 0.004,-0.043 0.015,-0.009 0.039,0.004 0.057,-0.008 0.039,0 0.078,0 0.118,-0.001 0.001,0.004 0.001,0.004 -0.019,0.019 -0.016,0.038 -0.04,0.033 -0.077,0.044 -0.002,0.017 -0.004,0.034 -0.006,0.05 -0.027,0.098 -0.027,0.098 -0.025,0.104 0.005,0.001 0.01,0.001 0.016,0.001 0.002,-0.008 0.008,-0.011 0.026,-0.044 0.01,-0.03 0.021,-0.058 0.025,-0.089 0.022,0 0.04,-0.01 0.059,-0.02 0,-0.022 0.055,-0.039 0.063,-0.064 0.032,0 0.138,-0.013 0.165,0.007 0.001,0.027 -0.011,0.035 0.022,0.037 0.007,-0.014 0.014,-0.028 0.022,-0.043 0.034,-0.004 0.069,-0.004 0.104,-0.003 0.009,0.038 -0.052,0.151 -0.075,0.179 -0.025,0.01 -0.055,0.023 -0.071,-0.004 -0.007,0 -0.013,0 -0.019,-0.001 0,0.006 0,0.011 0.001,0.016 0.01,0.003 0.02,0.015 0.037,0.025 0.024,-0.003 0.048,-0.006 0.072,-0.01 0.036,-0.036 0.052,-0.098 0.084,-0.141 0.004,-0.021 0.009,-0.042 0.014,-0.063 0.032,-0.005 0.064,-0.01 0.097,-0.016 0.091,0 0.185,0.008 0.275,-0.007 0.039,0 0.129,-0.01 0.158,0.007 0.187,0.015 0.378,0.018 0.565,0.011 -0.033,0.06 -0.052,0.102 -0.048,0.171 0.001,0.001 0.002,0.001 0.004,0.001 0.005,-0.007 0.01,-0.014 0.015,-0.022 0.011,-0.059 0.032,-0.113 0.084,-0.147 0.079,0.001 0.157996,0.002 0.236996,0.002 0.039,0.013 0.11,0.006 0.154,0 0.007,-0.007 0.111,0.005 0.12,0.005 0.001,-0.001 0.002,-0.003 0.003,-0.005 0.017,0.007 0.031,-0.003 0.045,0.004 0.001,-0.001 0.002,-0.003 0.004,-0.005 0.001,0.002 0.002,0.004 0.003,0.006 0.153,0.017 0.313,0.016 0.467,0.016 0.004,-0.004 0.134,-0.014 0.164,-0.02 0.024,0.001 0.048,0.002 0.072,0.003 0.002,0.01 0.004,0.019 0.006,0.028z"/>
   <path id="_128771072" class="fil3" d="M4.3568 2.58348c-0.031,0.015 -0.088,0.012 -0.124,0.01 0,-0.082 0.005,-0.162 0.012,-0.244 0.003,-0.004 0.006,-0.008 0.01,-0.013 0,-0.019 -0.007,-0.056 -0.02,-0.252 0.001,-0.067 0.001,-0.135 0.01,-0.201 0.001,0.002 0.002,0.004 0.004,0.006 0.013,-0.013 0.01,-0.036 0.012,-0.056 0.004,0.006 0.004,0.006 0.024,0.243 0.006,0.11 0.015,0.22 0.032,0.329 0.006,0.002 0.012,0.003 0.019,0.004 0.001,-0.007 0.003,-0.015 0.005,-0.023 0.006,0.066 0.015,0.13 0.016,0.197z"/>
   <path id="_128491912" class="fil3" d="M4.2528 1.33648c-0.021,0.013 -0.041,0.042 -0.055,0.062 -0.013,0.002 -0.013,0.002 -0.026,0.01 0,-0.025 0.009,-0.039 0.02,-0.06 -0.023,-0.063 -0.011,-0.147 -0.022,-0.215 0.016,0.002 0.032,0.004 0.048,0.005 0.017,0.108 0.017,0.108 0.035,0.198z"/>
   <path id="_128491672" class="fil2" d="M4.2128 2.36648c-0.008,0.077 -0.008,0.077 -0.016,0.234 -0.047,0.023 -0.146,0.015 -0.201,0.014 -0.018,-0.096 -0.021,-0.199 -0.021,-0.296 -0.008,-0.075 -0.016,-0.15 -0.024,-0.225 -0.011,-0.022 -0.059,-0.059 -0.081,-0.074 -0.017,-0.063 -0.005,-0.135 -0.002,-0.2 -0.003,-0.292996 -0.003,-0.292996 -0.007,-0.390996 0.02,-0.169 0.02,-0.169 0.032,-0.239 0.032,-0.001 0.064,-0.002 0.097,-0.003 -0.003,0.022 0,0.048 -0.006,0.068 0.001,0.002 0.002,0.004 0.004,0.006 -0.002,0.002 -0.004,0.004 -0.005,0.005 0.007,0.001 0.007,0.001 0.007,0.004 -0.003,0 -0.005,0 -0.007,0 0,0.01 -0.003,0.012 0.003,0.021 -0.002,0.001 -0.004,0.002 -0.006,0.003 0.001,0.008 -0.002,0.015 0.002,0.021 -0.002,0 -0.003,0 -0.004,0 0.001,0.027 0.003,0.053 0.005,0.079 -0.002,0.001 -0.004,0.002 -0.006,0.003 0.009,0.048 -0.002,0.119 -0.01,0.167 -0.034,0.0169961 -0.015,0.013 -0.01,0.0399961 0.003,-0.001 0.006,-0.002 0.01,-0.003 -0.005,0.031 -0.025,0.025 -0.017,0.063 0.004,0.002 0.008,0.004 0.012,0.006 0,0.009 0,0.018 0.001,0.027 -0.01,0.004 -0.008,0.01 -0.02,0.01 -0.002,0.007 -0.004,0.014 -0.006,0.02 0.004,0.002 0.009,0.004 0.014,0.005 0.001,-0.002 0.002,-0.005 0.004,-0.008 0,0.003 0.001,0.006 0.002,0.008 -0.021,0.007 -0.005,0.053 -0.004,0.074 0.007,0.003 0.014,0.006 0.021,0.009 0.004,-0.011 0.004,-0.011 0.003,-0.018 0.002,-0.001 0.004,-0.002 0.006,-0.003 0.024,-0.114 0.029,-0.233996 0.035,-0.349996 0.007,-0.24 0.007,-0.24 0.005,-0.254 -0.008,-0.003 -0.015,-0.006 -0.022,-0.009 0.021,-0.021 0.079,-0.039 0.109,-0.044 0.015,0.215 0.015,0.215 0.015,0.25 -0.012,0.025 -0.023,0.049 -0.034,0.073 -0.011,0.066 -0.01,0.126996 0.025,0.184996 0.008,0.005 0.008,0.005 0.011,0.015 0.002,0 0.004,0 0.006,0 0,0.003 0,0.005 0,0.007 0.021,0.012 0.042,0.024 0.064,0.036 0.001,0.037 0.001,0.037 -0.009,0.187 0,0.031 -0.005,0.084 0.008,0.111 -0.002,0.002 -0.004,0.004 -0.006,0.006 0.019,0.117 0.015,0.242 0.023,0.36z"/>
   <path id="_129880064" class="fil3" d="M4.1798 1.62948c-0.017,-0.014 -0.024,-0.019 -0.027,-0.043 0.01,0 0.021,0.033 0.027,0.043z"/>
   <path id="_130734856" class="fil3" d="M4.1498 1.47348c-0.014,0.018 -0.014,0.034 -0.019,0.056 -0.01,-0.021 -0.009,-0.067 0.012,-0.081 0.002,0.009 0.004,0.017 0.007,0.025z"/>
   <path id="_129251864" class="fil3" d="M3.9668 2.61948c-0.017,0.002 -0.034,0.004 -0.051,0.006 -0.002,-0.005 -0.004,-0.011 -0.005,-0.017 -0.003,0.001 -0.006,0.001 -0.008,0.001 0.001,-0.037 0.003,-0.074 0.005,-0.111 0.002,-0.001 0.004,-0.003 0.007,-0.005 0,-0.131 -0.014,-0.267 -0.028,-0.397 0.002,0 0.004,0 0.007,-0.001 0.005,0.005 0.011,0.009 0.017,0.013 0.007,0.075 0.007,0.075 0.024,0.186 0.003,0.109 0.009,0.219 0.032,0.325z"/>
   <path id="_129052664" class="fil2" d="M3.8768 2.55648c-0.002,0.026 -0.003,0.052 -0.004,0.077 -0.024,0 -0.047,0 -0.07,0 0,-0.007 0,-0.007 -0.003,-0.007 0,0.003 0,0.005 0,0.007 -0.004,0.001 -0.008,0.001 -0.011,0.001 -0.002,-0.002 -0.003,-0.004 -0.004,-0.007 -0.002,0.003 -0.004,0.006 -0.006,0.008 0,-0.007 0.003,-0.011 0.011,-0.009 0,-0.014 0,-0.028 0.001,-0.043 0.008,-0.01 0.012,-0.014 0.012,-0.027 -0.009,0.004 -0.01,-0.002 -0.018,-0.002 -0.001,-0.006 -0.002,-0.012 -0.002,-0.018 0.001,0 0.002,0 0.004,0 0,0.006 0.001,0.011 0.002,0.016 0,-0.004 0.001,-0.008 0.002,-0.013 0.001,0.002 0.003,0.004 0.005,0.006 0.008,-0.033 -0.002,-0.041 -0.008,-0.071 -0.001,0.009 -0.001,0.009 -0.005,0.009 0,-0.014 -0.004,-0.015 -0.008,-0.03 -0.002,0.004 -0.004,0.008 -0.006,0.012 -0.004,-0.009 -0.004,-0.009 -0.004,-0.036 -0.002,0.002 -0.003,0.003 -0.004,0.004 -0.001,-0.044 0.002,-0.044 0.002,-0.034 0.001,0 0.002,0 0.004,0 0.002,-0.014 0.002,-0.014 0.009,-0.024 0.001,0.002 0.003,0.003 0.005,0.004 -0.001,-0.011 -0.001,-0.022 -0.001,-0.033 -0.003,-0.001 -0.005,-0.002 -0.007,-0.003 -0.003,-0.04 0,-0.04 0,-0.03 0.001,0 0.002,0 0.004,0 -0.004,-0.074 0.009,-0.156 0.012,-0.231 0.013,-0.001 0.027,-0.002 0.041,-0.003 0.002,0.01 0.004,0.02 0.007,0.03 0.002,0 0.004,0 0.006,0 0,0.011 -0.006,0.034 0.009,0.037 -0.003,0.002 -0.006,0.004 -0.008,0.006 0.018,0.132 0.029,0.271 0.033,0.404z"/>
   <path id="_129760072" class="fil4" d="M3.7968 1.99348c-0.007,-0.007 -0.005,-0.01 -0.003,-0.019 0.001,0.007 0.002,0.013 0.003,0.019z"/>
   <path id="_130848400" class="fil5" d="M3.7868 2.61948c-0.006,-0.006 -0.006,-0.01 -0.006,-0.02 0.002,0.007 0.004,0.014 0.006,0.02z"/>
   <path id="_130358480" class="fil2" d="M3.7568 2.12948c-0.004,0.049 -0.035,0.182 -0.016,0.232 -0.014,0.026 -0.022,0.046 -0.03,0.075 0.007,0.013 0.007,0.013 0.014,0.053 0.006,0.127 0.01,0.15 0.008,0.157 -0.092,0.002 -0.190996,0.03 -0.280996,0.024 -0.001,-0.004 -0.001,-0.009 -0.001,-0.014 0.037,-0.067 0.125,-0.205 0.149996,-0.25 -0.01,-0.043 0.053,-0.145 0.067,-0.19 0.006,-0.03 0.017,-0.109 0.042,-0.125 0.014,0 0.029,-0.001 0.044,-0.002 0.001,0.014 0.002,0.027 0.003,0.04z"/>
   <path id="_130116024" class="fil2" d="M3.2428 1.21648c-0.217,-0.008 -0.217,-0.008 -0.231,-0.012 0,-0.003 0,-0.006 0,-0.01 0.004,-0.001 0.009,-0.002 0.014,-0.003 0.094,0.01 0.094,0.01 0.217,0.018 0,0.003 0,0.005 0,0.007z"/>
   <path id="_130584800" class="fil3" d="M2.6628 1.92348c-0.013,0.022 -0.002,0.091 -0.011,0.097 -0.01,0.144 -0.021,0.289 -0.021,0.434 -0.007,0.042 0.008,0.106 -0.016,0.137 -0.019,0.004 -0.028,0.01 -0.045,0.015 -0.004,-0.028 -0.037,-0.137 -0.019,-0.162 0.001,-0.019 -0.006,-0.072 -0.009,-0.076 0.004,-0.166 0.01,-0.332 0.023,-0.497 0,-0.077 0,-0.077 -0.005,-0.128 0.028,0.022 0.047,0.048 0.063,0.078 0.01,-0.007 0.01,-0.007 0.015,-0.005 -0.001,0.003 -0.001,0.006 -0.001,0.009 -0.002,0.001 -0.004,0.002 -0.006,0.002 0.002,0.008 0.004,0.016 0.007,0.023 0.003,0 0.006,0 0.009,0 0.003,0.013 0.005,0.017 0.014,0.026 0,0.016 0.001,0.032 0.002,0.047z"/>
   <path id="_128709520" class="fil1" d="M2.6198 2.62348c-0.001,0.004 -0.002,0.007 -0.003,0.01 -0.016,0.002 -0.032,0.004 -0.047,0.006 0.01,-0.031 0.017,-0.027 0.05,-0.033 0,0.006 0,0.012 0,0.017z"/>
   <path id="_129653720" class="fil3" d="M2.5598 1.21348c-0.016,0.088 -0.029,0.168 -0.033,0.256 -0.003,0 -0.005,0 -0.007,0 0,0.041 -0.001,0.084 -0.01,0.123996 0.002,0 0.004,0 0.007,0 -0.002,0.016 -0.002,0.016 -0.008,0.029 -0.002,-0.008 -0.004,-0.016 -0.006,-0.024 -0.002,0.008 -0.002,0.008 0.002,0.029 -0.009,0 -0.013,0.019 -0.015,0.027 -0.01,-0.001 -0.02,-0.003 -0.03,-0.005 -0.01,-0.02 0,-0.062 0.001,-0.0839961 0.01,-0.069 0.021,-0.139 0.017,-0.209 0.053,-0.21 0.053,-0.21 0.058,-0.218 0.024,0.024 0.021,0.041 0.024,0.075z"/>
   <path id="_129496216" class="fil1 str0" d="M2.5498 2.64348c-0.037,0.005 -0.037,0.005 -0.09,0.006 0.001,-0.005 0.002,-0.01 0.003,-0.016 0.013,-0.002 0.026,-0.004 0.04,-0.007 0,0.005 0,0.009 0,0.013 0.013,-0.004 0.027,-0.008 0.041,-0.012 0.002,0.006 0.004,0.011 0.006,0.016z"/>
   <path id="_130376880" class="fil2" d="M2.5468 2.61348c-0.025,0.008 -0.053,0.008 -0.08,0.01 0.003,-0.058 0.007,-0.116 0.011,-0.175 0,-0.188 -0.004,-0.228 -0.004,-0.303 -0.008,0.004 0,-0.029 0,-0.034 -0.002,0.002 -0.005,-0.007 -0.01,-0.011 0.023,-0.035 -0.032,-0.163 -0.058,-0.203 -0.003,0 -0.006,0 -0.009,0 -0.025,-0.025 -0.072,-0.018 -0.091,-0.05 -0.014,-0.001 -0.032,-0.005 -0.045,0.001 0,0.05 -0.013,0.105 -0.016,0.155 0,0.143 -0.004,0.164 -0.003,0.184 -0.002,0.001 -0.004,0.002 -0.005,0.003 0,0.03 -0.008,0.059 0.004,0.087 -0.015,0.339 -0.015,0.339 -0.018,0.344 -0.009,0.002 -0.013,0.004 -0.018,0.011 0.007,0.001 0.019,0.004 0.015,0.013 -0.016,0.003 -0.016,0.003 -0.063,-0.002 0,-0.002 0,-0.004 0,-0.007 0.016,0.002 0.023,-0.002 0.041,-0.001 0,-0.002 0,-0.004 0,-0.007 -0.021,0.001 -0.039,0.003 -0.059,-0.002 0,-0.191 0.036,-0.39 0.069,-0.577 0.013,-0.22 0.013,-0.283 0.02,-0.43 0.017,-0.0869961 0.02,-0.0889961 0.047,-0.244996 0.011,-0.045 0.024,-0.087 0.033,-0.132 -0.003,-0.009 -0.003,-0.009 0,-0.044 0.003,-0.002 0.006,-0.004 0.01,-0.006 0.001,-0.018 0.002,-0.036 0.004,-0.054 0.023,-0.019 0.128,-0.017 0.159,-0.007 0,0.008 0,0.016 0,0.023 -0.023,0.083 -0.045,0.18 -0.057,0.264 0.021,0.021 0.009,0.135 0.007,0.166996 -0.019,0.051 -0.019,0.114 -0.026,0.169 -0.008,0.027 -0.03,0.078 -0.024,0.105 0.008,-0.001 0.016,-0.002 0.024,-0.003 0.015,-0.061 0.031,-0.122 0.047,-0.184 0.011,-0.001 0.038,0.006 0.076,0.01 0.003,0.024 0.003,0.024 0.003,0.224 -0.003,0.103 -0.013,0.199 -0.013,0.297 0.009,0.006 -0.007,0.159 -0.007,0.19 0.008,0.034 0.001,0.052 -0.013,0.082 0.01,0.015 0.02,0.03 0.03,0.044 0.006,0.032 0.012,0.063 0.019,0.094z"/>
   <path id="_130080720" class="fil3" d="M2.4468 2.29948c-0.003,0.019 -0.018,0.087 -0.005,0.1 -0.015,0.045 -0.011,0.088 -0.01,0.136 0.001,-0.001 0.003,-0.002 0.005,-0.004 -0.003,0.007 -0.005,0.014 -0.007,0.02 0.003,0.001 0.006,0.002 0.01,0.002 -0.003,0.005 -0.003,0.005 -0.009,0.005 0.009,0.018 -0.003,0.048 0.002,0.065 -0.009,0 -0.018,-0.001 -0.026,-0.002 0.029,-0.029 0.018,-0.262 0.018,-0.313 -0.007,-0.107 -0.017,-0.216 -0.02,-0.323 0.002,0 0.004,0 0.006,0 0.002,0.006 0.004,0.012 0.007,0.018 0.007,0.095 0.015,0.19 0.023,0.285 0.002,0.004 0.004,0.008 0.006,0.011z"/>
   <path id="_129240792" class="fil1" d="M2.4298 2.63648c-0.002,0.006 -0.004,0.012 -0.006,0.018 -0.036,0.004 -0.036,0.004 -0.084,0.002 0,-0.01 0,-0.01 -0.003,-0.01 -0.003,0.004 -0.005,0.007 -0.007,0.01 -0.01,-0.001 -0.02,-0.003 -0.029,-0.005 -0.001,-0.003 -0.002,-0.006 -0.002,-0.01 0.004,0 0.008,0 0.012,0 0.002,0.003 0.004,0.005 0.007,0.007 0,-0.003 0.001,-0.006 0.002,-0.009 0.024,0 0.048,0 0.073,0 0,-0.002 0,-0.004 0,-0.006 0.012,-0.001 0.024,-0.002 0.037,-0.004 0,0.003 0,0.005 0,0.007z"/>
   <path id="_128858560" class="fil6" d="M2.4268 1.44648c-0.021,0.032 -0.071,0.052 -0.106,0.031 -0.011,-0.034 -0.014,-0.066 0.024,-0.081 0,-0.008 0,-0.016 0,-0.024 0.021,0 0.037,0.013 0.058,0.014 0,0.005 0,0.009 0.001,0.013 0.015,0.01 0.018,0.029 0.023,0.047z"/>
   <path id="_129024552" class="fil1" d="M2.3928 2.37648c-0.005,0.074 -0.025,0.177 -0.004,0.248 -0.022,0 -0.044,0 -0.066,-0.001 -0.007,-0.007 -0.044,-0.006 -0.056,-0.007 0,-0.127 0.007,-0.256 0.014,-0.383 0.001,-0.009 0.005,-0.017 0,-0.025 0.001,-0.104 0,-0.209 0.01,-0.312 0.001,-0.002 0.003,-0.004 0.005,-0.006 0.003,0.001 0.007,0.002 0.011,0.003 0,0.002 0,0.004 0,0.006 0.002,0 0.004,0 0.006,0 0.013,0.031 0.018,0.041 0.044,0.06 0.007,0.081 0.008,0.163 0.008,0.246 0.001,0.006 0.003,0.012 0.005,0.018 0.003,-0.01 0.003,-0.01 0.007,-0.01 0,0.003 0,0.006 0,0.009 0.002,0.001 0.004,0.002 0.006,0.003 -0.003,0 -0.006,0 -0.008,0 0,0.004 0,0.008 0,0.011 0.001,-0.002 0.002,-0.004 0.003,-0.007 0.003,0.035 0,0.035 0.002,0.024 -0.004,-0.001 -0.008,-0.002 -0.011,-0.003 -0.001,0.005 -0.002,0.009 -0.002,0.013 0.002,0 0.004,0 0.006,0 0.001,0.019 0.003,0.03 0.012,0.046 -0.014,0.001 -0.014,0.001 -0.016,-0.002 -0.001,0.003 -0.002,0.006 -0.002,0.009 0.013,0.003 0.013,0.003 0.013,0.007 -0.003,0 -0.005,0 -0.007,0 0,0.006 0,0.006 -0.003,0.006 0,-0.01 0,-0.01 -0.003,-0.01 -0.002,0.006 -0.003,0.012 -0.004,0.017 0.002,0 0.004,-0.001 0.007,-0.002 0.002,0.002 0.004,0.004 0.006,0.006 -0.002,0.002 -0.003,0.004 -0.004,0.005 0.001,0.001 0.002,0.002 0.004,0.003 0.005,-0.01 0.005,-0.01 0.005,-0.022 0.009,0.009 0.01,0.036 0.012,0.05z"/>
   <path id="_128333176" class="fil7" d="M2.3868 1.44648c-0.01,0.01 -0.015,0.012 -0.029,0.012 -0.001,-0.012 -0.002,-0.024 -0.003,-0.036 0.007,-0.004 0.007,-0.004 0.016,-0.004 0.005,0.01 0.01,0.019 0.016,0.028z"/>
   <path id="_130059224" class="fil8" d="M0.956807 1.03948c-0.003,0 -0.005,0 -0.007,0 -0.011,0.028 -0.038,0.052 -0.06,0.072 -0.051,0.017 -0.102,0.124 -0.167,0.087 -0.006,0 -0.012,-0.001 -0.018,-0.002 -0.007,0.007 -0.017,0.005 -0.026,0.009 -0.001,-0.001 -0.002,-0.003 -0.003,-0.005 -0.092,-0.001 -0.187,-0.009 -0.279,0.002 -0.003,-0.001 -0.006,-0.002 -0.009,-0.004 -0.01,0.01 -0.057,-0.004 -0.067,-0.014 -0.017,-0.061 -0.041,-0.122 -0.066,-0.18 0,-0.026 0.068,-0.105 0.083,-0.127 0.03,-0.056 0.03,-0.056 0.04,-0.067 0.065,-0.021 0.127,-0.03 0.196,-0.035 0.042,0.056 0.158,0.084 0.226,0.101 0,0.006 0,0.011 0.001,0.016 0.033,0 0.033,0 0.068,0.006 0.012,-0.004 0.025,-0.009 0.038,-0.014 0.021,0.021 0.037,0.118 0.05,0.155z"/>
  </g>
 </g>
</svg>
