<?xml version="1.0" encoding="UTF-8"?>
<!DOCTYPE svg PUBLIC "-//W3C//DTD SVG 1.1//EN" "http://www.w3.org/Graphics/SVG/1.1/DTD/svg11.dtd">
<!-- Creator: CorelDRAW -->
<svg xmlns="http://www.w3.org/2000/svg" xml:space="preserve" width="8.5in" height="11in" style="shape-rendering:geometricPrecision; text-rendering:geometricPrecision; image-rendering:optimizeQuality; fill-rule:evenodd; clip-rule:evenodd"
viewBox="0 0 8.5 11">
 <defs>
  <style type="text/css">
   <![CDATA[
    .fil5 {fill:black}
    .fil9 {fill:white}
    .fil3 {fill:#2B2926}
    .fil13 {fill:#332B24}
    .fil6 {fill:#4F2608}
    .fil0 {fill:#5E3812}
    .fil15 {fill:#6B300D}
    .fil11 {fill:#6B470F}
    .fil10 {fill:#70590F}
    .fil17 {fill:#78570A}
    .fil18 {fill:#965700}
    .fil1 {fill:#9E5205}
    .fil8 {fill:#A17D0A}
    .fil12 {fill:#A8960A}
    .fil2 {fill:#B86905}
    .fil7 {fill:#D4B012}
    .fil14 {fill:#E0AD12}
    .fil16 {fill:#E89E47}
    .fil4 {fill:#F7B512}
   ]]>
  </style>
 </defs>
 <g id="Layer_x0020_1">
  <metadata id="CorelCorpID_0Corel-Layer"/>
  <g id="_130355120">
   <path id="_129574464" class="fil0" d="M3.75432 6.79743c-0.0194331,-0.00619685 -0.0194331,-0.00619685 -0.462551,-0.0657953 -0.0203228,0.00175591 -0.036878,-0.00311417 -0.0574213,-0.00842913 -0.00851181,0.0131339 -0.0673622,-0.000488189 -0.0832638,-0.00226378 0.000224409,-0.00198819 0.000444882,-0.00397638 0.000779528,-0.00695669 0.0252638,0.00338976 -0.0881969,-0.0131417 -0.138807,-0.00948031 -0.0460472,-0.00212992 -0.101157,0.00479134 -0.145764,-0.010252 -0.0906654,0.000929134 -0.173374,-0.00630709 -0.263142,-0.022378 -0.00618504,0.0013189 -0.0123701,0.00264173 -0.0184449,0.0029685 0.000220472,-0.00198819 0.000444882,-0.00397638 0.000779528,-0.00695669 -0.0200984,-0.000232283 -0.0781929,0.00635433 -0.0905512,-0.00911417 -0.00662598,0.00529528 -0.011374,0.00275197 -0.0202087,0.000759843 -0.00607874,0.00938189 -0.0204291,0.00274409 -0.0256142,-0.00487795 -0.0288346,0.0148898 -0.0982835,-0.00293701 -0.126102,-0.0151024 -0.0022126,0.00176378 -0.00342913,0.00364173 -0.00464567,0.00551969 -0.00750394,-0.00486614 -0.0929724,-0.0144213 -0.103575,-0.00956693 -0.0096063,-0.00409449 -0.0182165,-0.0080748 -0.0268268,-0.0120551 -0.00342913,0.00364173 -0.00675197,0.0062874 -0.00906299,0.00904724 -0.00187795,-0.00121654 -0.00364173,-0.0034252 -0.00540551,-0.00563386 -0.00662992,0.00529528 -0.0114882,0.00374803 -0.0204331,0.00274803 -0.00264961,-0.00331496 -0.00529528,-0.00662992 -0.00794488,-0.00994488 -0.00817323,0.00109843 -0.0163465,0.00219685 -0.0235236,0.00340551 0.000775591,-0.00695669 0.000775591,-0.00695669 -0.00319685,-0.00740157 -0.00121654,0.00187795 -0.00243307,0.00375591 -0.00364961,0.00562992 -0.0140236,-0.000559055 -0.0280472,-0.00112205 -0.0409685,-0.00256693 -0.00176378,-0.00220866 -0.0024252,-0.00529921 -0.00308661,-0.0083937 -0.0167874,0.00617323 -0.034122,-0.000795276 -0.0447283,0.00405512 -0.00275197,-0.0023189 -0.00540551,-0.00563386 -0.00805512,-0.00894882 -0.00132677,0.00287008 -0.00265354,0.00574016 -0.00298819,0.00872047 -0.0049685,-0.000555118 -0.00894094,-0.001 -0.0129173,-0.00144488 -0.000771654,-0.00209843 -0.00154331,-0.00419685 -0.00120866,-0.00717717 -0.00243307,0.00375197 -0.00375984,0.00662205 -0.00508661,0.00949213 -0.0119252,-0.00133071 -0.0405315,0.00251575 -0.0484764,-0.00742913 -0.00121654,0.00188189 -0.00243307,0.00375197 -0.00265354,0.00574016 -0.028378,-0.00719685 -0.078622,-0.00778346 -0.108331,-0.00305512 -0.00970866,-0.0121535 -0.105677,-0.00879528 -0.12898,-0.00737402 -0.00088189,-0.0011063 -0.00165354,-0.00320472 -0.0024252,-0.00530315 -0.0252953,0.0102559 -0.0533307,-0.00898031 -0.074874,0.00370472 -0.00176772,-0.00220866 -0.0035315,-0.00441732 -0.00419291,-0.00751181 -0.0023189,0.00275984 -0.00353543,0.0046378 -0.00475197,0.00651181 -0.109319,-0.0122205 -0.217106,-0.00212992 -0.328307,-0.00651181 -0.00596063,-0.00972441 -0.016563,-0.00487008 -0.0250709,-0.000791339 -0.0110472,-0.000228346 -0.190815,-0.0122756 -0.199654,-0.0052126 -0.00198425,-0.00927559 -0.00198425,-0.00927559 -0.00496457,-0.00961024 -0.000334646,0.00298031 -0.000555118,0.0049685 -0.000779528,0.00695669 -0.0281535,-0.00918504 -0.0281535,-0.00918504 -0.0298071,-0.0123898 -0.0440709,0.0162047 -0.10822,-0.00404724 -0.158138,0.00144094 -0.00486614,0.00750787 -0.00486614,0.00750787 -0.00872835,0.00606693 0.000220472,-0.00198819 0.000444882,-0.00397244 0.000779528,-0.00695669 -0.113295,-0.0126654 -0.23211,-0.0299685 -0.346303,-0.0165748 -0.0888937,-0.00591732 -0.17935,0.0111457 -0.267138,0.00435039 0.00120472,0.0162323 0.00240945,0.0324685 0.00471654,0.0478189 0.00176772,0.00219291 0.0046378,0.00353937 0.00750787,0.00486614 -0.0129213,-0.00144488 -0.0248465,-0.00277953 -0.0367717,-0.00411024 0.00254724,-0.0138031 0.00254724,-0.0138031 -0.00470079,-0.0749882 0.0150118,-0.152276 0.0232874,-0.307315 0.0313386,-0.460366 0.00121654,-0.00187795 0.00243307,-0.00375591 0.00475591,-0.00651181 -0.00434252,-0.114193 -0.00434252,-0.114193 -0.00287008,-0.33439 0.0145433,-0.112079 0.0330591,-0.223713 0.0534528,-0.33413 0.0257283,-0.329181 0.0395315,-0.659693 0.0651496,-0.987878 -0.00187402,-0.00121654 -0.00364173,-0.0034252 -0.00540551,-0.00563386 0.0385315,-0.317685 -0.00755512,-0.399988 -0.00303543,-0.719465 -0.0133701,-0.150413 -0.0187874,-0.309 -0.0650709,-0.453031 -0.0234134,0.00241339 -0.178657,-0.0976102 -0.205386,-0.0925512 -0.0110354,-0.00928346 -0.219295,-0.346031 -0.222051,-0.357406 0.0136969,-0.00551181 0.132228,-0.0138583 0.163815,-0.017374 0.060622,0.00677953 0.136394,-0.0139331 0.191921,0.0113937 0.0967441,0.00779528 0.194354,0.0076378 0.290984,0.00737402 -0.00559449,-0.0579803 0.017685,-0.186039 0.000464567,-0.365059 -0.0080315,-0.0451732 -0.00987795,-0.0916654 -0.0146102,-0.112319 0.00942913,-0.228366 0.00427165,-0.470768 0.00141339,-0.490205 -0.00386614,-0.00144094 -0.00673622,-0.00276772 -0.0096063,-0.00409449 0.0120079,-0.287445 0.0248976,-0.573783 0.0408819,-0.860787 -0.0114724,-0.0143622 0.0234882,-0.111075 0.0228386,-0.13228 0.00198819,0.000220472 0.00397638,0.000444882 0.00695669,0.000775591 0.000767717,-0.00695669 0.00166535,-0.0149055 0.00255512,-0.0228543 0.00209843,-0.000771654 0.00419685,-0.00154331 0.00729134,-0.00220472 0.00157087,-0.0410787 0.0110945,-0.0812717 0.0244843,-0.120024 0.00554724,-0.0406339 0.0110984,-0.0812795 0.0166457,-0.121906 0.00493701,-0.116169 0.0263228,-0.226476 0.0353465,-0.343197 -0.00407874,-0.00850394 -0.00407874,-0.00850394 -0.00805512,-0.00894882 0.00111811,-0.0189961 0.00111811,-0.0189961 0.00420866,-0.0196535 0.000771654,0.00209843 0.00165354,0.00320079 0.0035315,0.00441732 0.000334646,-0.00298031 0.00166142,-0.00585039 0.00309843,-0.00971654 -0.00485827,-0.00154724 -0.00861024,-0.00398031 -0.0123622,-0.00641339 0.00132677,-0.00287008 0.00276378,-0.00673228 0.00519685,-0.0104882 0.00341732,0.00541339 0.00341732,0.00541339 0.00662205,0.00375984 -0.00143307,-0.00518898 -0.00143307,-0.00518898 -0.00717323,-0.00784252 0.00631496,-0.0294843 0.00631496,-0.0294843 0.00929528,-0.0291496 -0.000775591,0.00695669 -0.000775591,0.00695669 0.00319685,0.00740157 0.00885433,-0.0251732 0.0443031,-0.027248 0.0590079,-0.0507598 0.0162323,-0.00120472 0.0334606,-0.00229528 0.0507992,-0.00438189 0.000224409,-0.00198819 0.000444882,-0.00397638 0.000665354,-0.00596457 0.0546732,-0.012 0.0590945,-0.0155315 0.0864803,-0.0175 0.00121654,-0.00187795 0.00243307,-0.00375197 0.00375984,-0.00662205 0.0362205,2.3622e-005 0.0362205,2.3622e-005 0.124906,-0.010189 0.199646,0.0233268 0.393437,0.0449882 0.59287,0.052189 0.0206496,0.00432283 0.0414094,0.00764961 0.0621654,0.0109764 0.161228,0.00695276 0.321787,0.0198701 0.483555,0.0399646 0.0210866,0.00940157 0.0753071,0.0104331 0.0945276,0.000507874 0.137811,0.00936614 0.137811,0.00936614 0.225157,0.0201378 0.000220472,-0.00198819 0.000444882,-0.00397638 0.000775591,-0.00695669 0.0176732,-0.00506693 0.0280551,-0.00793307 0.0387795,-0.0228346 0.0217559,-0.00561811 0.0857047,-0.0195984 0.0977244,0.00790551 0.00198819,0.000224409 0.00397638,0.000444882 0.00596457,0.000669291 -0.000444882,0.00397244 -0.000779528,0.00695669 -0.00111024,0.00993701 0.00838583,0.0059685 0.0127992,0.0114921 0.0230709,0.00962205 -0.000330709,0.00298031 -0.000555118,0.0049685 -0.000775591,0.00695669 0.023622,0.0137087 0.0769567,0.022689 0.085,0.049752 0.00298031,0.000334646 0.00596063,0.000665354 0.00993701,0.00111024 -0.000224409,0.00198819 -0.000444882,0.00397638 -0.000661417,0.00596457 0.0169921,0.00994882 0.0350984,0.0190157 0.0532047,0.0280827 0.0527756,0.0139488 0.111083,0.0144331 0.157669,0.0387559 0.0194134,0.0333661 0.0444488,0.0613189 0.0739331,0.0857441 0.00837402,0.0240827 0.078689,0.0701772 0.0954685,0.0821102 0.0518937,0.0128504 0.105886,0.0249252 0.159217,0.0339055 0.0276693,0.0765472 0.0157874,0.173827 0.0136339,0.256098 0.0207441,0.192496 0.0320984,0.387969 0.0559331,0.579803 0.0205748,0.112984 0.0411496,0.225969 0.0627205,0.339067 0.0101299,0.206402 0.0302008,0.413917 0.0271929,0.620862 -0.0155591,0.148189 -0.037748,0.301673 -0.0483386,0.450417 0.0215276,0.0054252 0.0431693,0.00985827 0.0658071,0.0144016 0.00575591,-0.0245118 0.00855512,-0.0765236 0.0364961,-0.0834606 0.000224409,-0.00198819 0.000444882,-0.00397638 0.000779528,-0.00695669 0.0548858,-0.00493307 0.109776,-0.00986614 0.165657,-0.014689 0.000220472,-0.00198819 0.000444882,-0.00397638 0.000775591,-0.00695669 0.0159016,0.00177953 0.0159016,0.00177953 0.0193268,-0.0018622 -0.000448819,0.0130276 0.000984252,0.0182205 0.0115827,0.0224252 0.00142913,0.00518898 0.0028622,0.0103819 0.00429528,0.0155709 0.00209843,-0.000771654 0.00419685,-0.00154331 0.00640551,-0.00330709 0.000771654,0.00209843 0.00165748,0.00320472 0.00253937,0.00430709 -0.00209843,0.000771654 -0.00309449,0.000661417 -0.00408661,0.000551181 0.00176378,0.00220866 0.0035315,0.00441732 0.00529528,0.00662992 -0.00320472,0.00165354 -0.00640551,0.00330709 -0.0095,0.0039685 0.0194094,0.0424173 0.0194094,0.0424173 0.0171969,0.044185 0.00187795,0.00121654 0.00386614,0.00143701 0.00684646,0.00177165 0.00242126,0.0143543 0.00495276,0.0277205 0.00847638,0.0411969 0.0536654,0.00599606 0.106886,0.0159724 0.158559,0.0308031 0.000437008,0.00508268 0.000877953,0.0101614 0.0014252,0.014248 0.0168898,0.0109449 0.0245,0.0238701 0.0394016,0.0345906 -0.000220472,0.00198819 -0.000444882,0.00397638 -0.000665354,0.00596457 0.0720709,0.0573622 0.150004,0.107327 0.226831,0.158177 0.0572835,0.0456457 0.0572835,0.0456457 0.092937,0.068752 -0.000334646,0.00298031 -0.000555118,0.0049685 -0.000779528,0.00695669 0.0220827,0.00951181 0.0233976,0.024752 0.0349764,0.0471772 0.0390866,0.0104055 0.0390866,0.0104055 0.0650315,0.0213465 -0.000889764,0.00796063 -0.00177953,0.0159094 -0.00255512,0.0228661 -0.0238543,-0.00266535 -0.0477047,-0.00533071 -0.070563,-0.00788583 -0.0093937,0.0120315 -0.0093937,0.0120315 -0.0142638,0.0285906 0.000401575,0.392476 0.0245394,0.78861 0.0422795,1.179 0.015437,0.203976 0.026563,0.410492 0.0288543,0.615012 -0.00390551,0.0619488 -0.00390551,0.0619488 -0.0013937,0.10248 -0.0172913,0.262705 -0.0396654,0.525846 -0.0649094,0.787665 -0.00937402,0.146866 -0.00649606,0.301142 -0.0296693,0.445461 -0.015,0.161331 -0.0154606,0.327307 -0.0184409,0.488976 -0.00938583,0.00297638 -0.0100551,0.00893701 -0.0140354,0.0175512 -0.111362,-0.0172953 0.0918268,0.017815 -0.414307,-0.0473228z"/>
   <path id="_129574200" class="fil1" d="M4.14635 6.79195c-0.265252,-0.00348819 -0.533898,-0.0576693 -0.796146,-0.0970472 -0.0183346,0.00197244 -0.0350039,-0.00190157 -0.0526732,-0.00588976 -0.162106,-0.00805906 -0.328067,-0.0266102 -0.490398,-0.0417402 -0.195465,0.00229921 -0.405701,-0.0342835 -0.600488,-0.0560591 -0.011815,-0.00232677 -0.0226339,-0.00454331 -0.0333465,-0.00775197 -0.0232992,0.00142126 -0.0848071,-0.00646063 -0.53126,-0.0362441 -0.144559,0.00597638 -0.289335,0.00488583 -0.433886,0.00180709 -0.0943031,-0.0115472 -0.192469,-0.0245276 -0.286661,-0.0280197 -0.00386614,-0.00143701 -0.00673622,-0.00276378 -0.00949606,-0.00508661 -0.213685,0.00327953 -0.431886,-0.0160787 -0.645579,-0.00374409 0.00323228,-0.0469252 0.00643701,-0.0485866 0.0119921,-0.0982756 0.000814961,-0.0612874 0.00162992,-0.122579 0.00343701,-0.183756 0.00855512,-0.0765236 0.0192047,-0.153819 0.00964961,-0.230354 -0.000724409,-0.0745394 -0.00144488,-0.149083 -0.00205906,-0.224618 0.00935039,-0.110646 0.00935039,-0.110646 0.0231102,-0.206713 0.0572165,-0.187807 0.0707244,-0.407665 0.0815748,-0.603673 -0.00350787,-0.0496969 -0.000822835,-0.100717 0.00274409,-0.150626 -0.00206299,-0.053563 -0.00412205,-0.107122 -0.00519291,-0.160571 0.0259449,-0.322114 0.0291496,-0.323768 0.0302598,-0.333705 -0.00154331,-0.00419685 -0.00308661,-0.0083937 -0.00451575,-0.0135866 0.00245276,-0.201976 -0.0018622,-0.162886 -0.0115551,-0.364209 -0.00253937,-0.00431102 -0.00601575,-0.0902283 -0.00887795,-0.10061 0.00585039,-0.160343 -0.0106102,-0.319154 -0.0300512,-0.478299 -0.00572835,-0.0207638 -0.0394606,-0.106039 -0.0360197,-0.13685 0.0238543,0.00266929 0.0504764,-0.0104567 0.0724567,-0.0180591 0.0489252,-0.00560236 0.0794016,0.000822835 0.126764,0.0181929 0.254965,0.0325276 0.254965,0.0325276 0.284335,0.0398346 0.000425197,0.0231929 -0.00567323,0.0597402 0.018063,0.0724567 0.00561811,0.0217598 0.0122283,0.0436299 0.0189488,0.0645039 0.00390945,0.100055 -0.00712598,0.252772 0.0452717,0.342146 0.00533071,-0.0477008 -0.00534646,-0.096189 -0.010063,-0.144008 0.00193701,-0.0893386 0.000996063,-0.170945 -0.0205906,-0.256878 -0.0180945,-0.0271772 -0.0221732,-0.035685 -0.0125433,-0.067811 0.00805906,-0.000106299 0.0162323,-0.00120472 0.0253976,-0.00219291 -0.0169173,0.0343346 -0.0102756,0.0109252 0.00517323,0.0257323 0.0132598,-0.0105906 0.041752,-0.0134449 0.0586535,-0.0206102 0.00529528,0.00662992 0.0166732,0.00387795 0.0248465,0.00277953 0.0604016,0.00876378 0.115165,0.0229331 0.176236,0.0166811 0.001,-0.00894488 0.0179449,-0.0795 0.00823228,-0.0916535 0.00187795,0.00121654 0.00375591,0.00243307 0.00673622,0.00276772 0.00211811,-0.0279409 0.00434252,-0.0568701 0.0065748,-0.0858031 -0.00331102,-0.00640551 0.00190157,-0.206059 0.00567323,-0.230799 -0.00638189,-0.0329094 0.00523228,-0.0648189 -0.00302362,-0.0989488 0.00134252,-0.0300354 -0.00125591,-0.105791 0.0151024,-0.126102 0.00431102,-0.164539 0.00431102,-0.164539 0.0011063,-0.171941 -0.0170394,-0.279622 -0.0413346,-0.800878 -0.0452362,-1.08104 0.00214961,-0.0732165 0.00937008,-0.137811 0.0172559,-0.208374 -0.00761024,-0.174929 -0.00441732,-0.329528 0.00916929,-0.496051 0.00198819,0.000216535 0.00397244,0.000444882 0.00596063,0.000665354 -0.00572835,-0.0207638 -0.0107126,-0.165213 0.00299213,-0.17978 -0.00483858,-0.0287165 -0.00416535,-0.0437323 0.0104252,-0.066252 0.00298031,0.000334646 0.0060748,-0.000326772 0.00916535,-0.000988189 -0.000330709,0.00297638 0.000326772,0.0060748 0.000988189,0.00916535 0.00596457,0.000669291 0.00596457,0.000669291 0.0150236,-0.00838189 0.00187795,0.00121654 0.00474803,0.00254331 0.00761811,0.00387008 0.00983858,-0.0160039 0.178248,-0.019315 0.196134,-0.00825984 0.143126,-0.0111693 0.143126,-0.0111693 0.213803,-0.0133307 0.0205354,0.00531496 0.0315748,0.0145984 0.0384055,0.0344803 -0.00415748,0.109213 -0.00224409,0.218102 0.00364567,0.327433 0.0062874,0.0157953 0.0062874,0.0157953 0.00891732,0.0462756 -0.00198819,-0.000220472 -0.00298425,-0.000334646 -0.00386614,-0.00143701 0.0014252,0.0142441 0.00384646,0.0286024 0.00637795,0.0419685 0.00198819,0.000220472 0.00408661,-0.000551181 0.00717717,-0.0012126 0.00111811,-0.0189921 0.0084252,-0.0483622 -0.000948819,-0.0634961 0.0012126,-0.00187795 0.0034252,-0.00364173 0.00563386,-0.00540945 -0.0244449,-0.105366 -0.000275591,-0.249575 0.00587008,-0.358567 0.0356811,-0.0131181 0.107358,-0.0242244 0.140252,-0.00344094 0.00121654,-0.00187402 0.0034252,-0.00364173 0.00563386,-0.00540551 0.00187795,0.00121654 0.00375591,0.00243307 0.00562992,0.00364567 0.00419291,-0.00154331 0.00938976,-0.00297244 0.0146929,-0.00539764 0.00176378,0.00220866 0.00364173,0.0034252 0.00651181,0.00475197 0.152831,0.0100394 0.311063,0.0347717 0.462783,0.054752 0.00772835,0.00287402 0.0155669,0.00475984 0.0243976,0.00675197 -3.93701e-006,0.00905512 -1.1811e-005,0.0181102 9.44882e-005,0.0261732 0.0128071,0.00243701 0.0266102,0.00498425 0.0405236,0.00654331 -0.0156299,0.0857913 -0.0709331,0.220484 -0.0473583,0.306634 -0.000740157,0.11463 -0.00136614,0.228256 -0.00199606,0.341894 0.00385827,0.0104961 0.00870866,0.0210984 0.013563,0.0317047 0.00287008,0.00132677 0.00574016,0.00265354 0.00971654,0.00309843 -0.00466929,-0.120264 -0.00149213,-0.247701 0.00587402,-0.367622 0.0168976,0.00188976 0.031811,-0.0055 0.0466102,-0.0118976 -0.00949213,-0.00508268 -0.00949213,-0.00508268 -0.0274921,-0.00609055 0.016248,-0.019315 0.0544606,-0.028122 0.0635276,-0.0462283 -0.00187402,-0.00121654 -0.00375197,-0.00243307 -0.00562598,-0.00364961 0.000220472,-0.00198425 0.000440945,-0.00397244 0.000775591,-0.00695669 0.00320472,-0.00165354 0.00651969,-0.00429921 0.0108268,-0.00683858 -0.00188189,-0.00121654 -0.00275984,-0.0023189 -0.0035315,-0.00441732 -0.0244134,0.0113583 -0.0244134,0.0113583 -0.0753307,0.0257874 -0.00354331,0.0136929 0.0164449,0.0149213 0.0241732,0.0177992 -0.021878,0.0156654 -0.021878,0.0156654 -0.0343583,0.0192992 0.00458661,-0.0860197 0.00434252,-0.21887 0.0586142,-0.290283 0.118169,-0.0129528 0.118169,-0.0129528 0.215693,-0.0302244 0.066689,0.0155039 0.146094,0.00727559 0.215445,0.00798425 0.0567598,0.00533858 0.113516,0.0106772 0.171268,0.016126 0.00385827,0.0104961 0.0149016,0.0107244 0.0257244,0.012937 0.00594488,0.0278346 0.00461024,0.0397598 0.0178465,0.0653898 0.0208701,0.00233071 0.0449409,0.00301181 0.0618307,0.0139567 0.0212047,-0.000649606 0.0434016,-0.00118898 0.0657087,-0.00272047 0.0247165,0.0309409 -0.0154921,0.0485827 -0.0308583,0.069 0.0112598,0.00729528 0.0303661,0.00742126 0.038311,0.0173661 0.00427559,0.0427362 0.00813386,0.0532323 -0.0251181,0.0716496 0.0085,0.00497638 0.0085,0.00497638 0.0281535,0.00918504 -0.00144882,0.0219764 -0.00289764,0.0439528 -0.00335433,0.0660354 0.00574016,0.00265748 0.0115906,0.00431496 0.0174449,0.00597638 0.0103189,0.087689 0.014685,0.165657 0.0421378,0.397142 0.0488425,0.283177 0.0488425,0.283177 0.0588386,0.364791 -0.0121496,0.00065748 -0.0242953,0.00131102 -0.0363346,0.000972441 -0.00211024,0.0188819 0.0113543,0.0334685 0.0263661,0.0431969 -0.00132283,-0.00618504 -0.00264173,-0.0123701 -0.0029685,-0.0184449 0.0049685,0.000555118 0.0109291,0.00122047 0.0168937,0.00188583 -0.00111024,0.00994094 -0.00222441,0.019878 -0.00322047,0.0288228 -0.00275984,-0.00232283 -0.00551969,-0.00464173 -0.00827953,-0.00696457 -0.0139252,0.0075 -0.0139252,0.0075 -0.0490433,0.0156496 -0.000559055,0.0140236 -0.000559055,0.0140236 0.0026378,0.0214252 0.0195472,-0.00385039 0.0390984,-0.00770472 0.059752,-0.012437 0.0105906,0.0132559 0.00603543,0.0540039 0.0050315,0.0720039 -0.00507874,0.000437008 -0.00905512,-7.87402e-006 -0.0130315,-0.000452756 -0.00166535,0.0149094 0.0117953,0.0294961 0.0195197,0.0414252 -0.000562992,0.0140276 -0.00112205,0.0280512 -0.00168504,0.0420748 -0.0234331,0.0295787 -0.0234331,0.0295787 -0.0316181,0.0487953 -0.0196024,0.0853465 -0.0687362,0.0657638 -0.14163,0.0878031 -0.00431496,0.0115906 -0.00431496,0.0115906 -0.0424016,0.325303 -0.00211811,0.027937 -0.00412205,0.0548819 -0.00513386,0.081937 -0.00299606,0.0177756 -0.0127283,0.0418425 -0.00666535,0.059622 -0.0154685,0.0123622 -0.00835039,0.101709 -0.0112402,0.127547 0.0230866,-0.00848819 0.00268898,-0.0600748 0.014185,-0.072874 0.00642913,-0.0395315 0.0129724,-0.0800551 0.0205079,-0.120469 0.0327953,0.00366535 0.0327953,0.00366535 0.0401969,0.000468504 -0.0372008,-0.018248 -0.0306772,-0.0316024 -0.0284449,-0.0695906 0.0130315,0.000448819 0.0270551,0.00101181 0.0411929,0.00057874 0.00154724,-0.00485827 0.00154724,-0.00485827 -0.00639764,-0.0148031 -0.0153504,0.00231102 -0.0153504,0.00231102 -0.0320236,-0.00156693 0.0154173,-0.101917 0.0271929,-0.20726 0.0434961,-0.308075 0.0447283,-0.00405512 0.0784173,-0.00833858 0.113768,-0.0365866 0.00420866,-0.0196535 0.0255472,-0.0575157 0.0435551,-0.0655669 0.00780315,0.218217 0.00512205,0.43124 -0.0112559,0.649772 -0.0325827,0.174461 -0.0377835,0.184949 -0.0352441,0.189256 -0.0145984,0.193575 -0.0165276,0.273858 -0.0264567,0.425697 0.000661417,0.00309055 0.0024252,0.00529921 0.00418898,0.00751181 0.0384331,-0.00174409 0.0807362,-0.0111024 0.142913,-0.0182362 0.0739843,0.00424409 0.160228,0.00684252 0.233551,0.0170512 0.169083,-0.0183307 0.348657,-0.0405157 0.518815,-0.0144528 -0.00162598,0.122579 -0.00501969,0.242949 0.00240551,0.365531 -0.00688583,0.0616102 0.00698425,0.126559 0.00605906,0.188843 0.0194567,0.131976 0.00722047,0.268465 0.0225906,0.400992 -0.00243701,0.0128071 0.0349291,0.614685 0.0402283,0.783315 -0.00126772,0.0743268 -0.0014252,0.147756 -0.00158661,0.221193 -0.0346024,0.552579 -0.104543,1.10624 -0.113197,1.6607z"/>
   <path id="_128988552" class="fil2" d="M4.38824 3.16477c-0.100705,-0.00824016 -0.410165,-0.0341772 -0.507882,-0.0601929 -0.0576496,0.0116654 -0.114311,0.0234449 -0.170969,0.0352244 -0.126,-0.00704331 -0.258508,-0.0188346 -0.38298,0.00548425 0.00494094,-0.125224 0.00877953,-0.249567 0.0246535,-0.373571 0.0520039,0.0118504 0.0594016,0.0177087 0.0811535,0.0211457 0.0397598,-0.00461024 0.0861339,0.00359055 0.126768,0.00914173 -0.000330709,0.00298031 0.000330709,0.00607087 0.00109843,0.00816929 0.0653701,0.00932283 0.137154,0.00627953 0.203189,0.00963386 0.00772835,0.00287795 0.0154567,0.00575197 0.0241772,0.00874016 0.000771654,0.00209843 0.00154331,0.00419685 0.00231496,0.00629528 0.014248,-0.0014252 0.266189,0.0101535 0.269378,0.0266102 0.122953,0.0137441 -0.0656417,-0.0571929 0.329098,0.303319z"/>
   <path id="_128723800" class="fil0" d="M3.61437 3.53972c-0.0060748,0.000326772 -0.0120354,-0.000338583 -0.0170039,-0.000893701 -0.0135748,-0.0135906 -0.0178701,-0.0291654 -0.0317795,-0.0397756 -0.0242953,0.00130709 -0.0724488,0.00900787 -0.097622,0.000153543 0.000555118,-0.0049685 0.00111417,-0.00993701 0.00266142,-0.0147953 0.0547874,-0.0220472 0.143461,-0.0141496 0.143744,0.055311z"/>
   <path id="_128723656" class="fil3" d="M3.3097 6.17519c-0.00243307,0.00375591 -0.00375984,0.00662598 -0.00508661,0.00949606 -0.00198819,-0.000224409 -0.00397638,-0.000444882 -0.00596457,-0.000669291 -0.000330709,0.00298425 -0.000555118,0.00497244 -0.000775591,0.00695669 -0.00408661,0.000551181 -0.00806299,0.000106299 -0.0110433,-0.000228346 -0.00383858,-0.0376575 -0.00282283,-0.0737677 0.00151181,-0.112528 -0.00308661,-0.0083937 -0.00308661,-0.0083937 -0.00874409,-0.137823 -0.0114331,-0.077752 -0.0227559,-0.156496 -0.0340748,-0.235244 -0.0214843,-0.0778661 -0.0140276,-0.162563 -0.0334094,-0.241205 -0.0046378,-0.165539 -0.024622,-0.337827 -0.0373228,-0.50326 0.00425197,-0.0830433 0.0323543,-0.163417 0.0387047,-0.247228 -0.0225236,-0.00553937 -0.0429488,-0.0118465 -0.0639252,-0.0222402 0.000968504,-0.125673 -0.0109843,-0.252787 -0.0100157,-0.378457 0.00332283,-0.0117047 0.00608661,-0.018437 0.000350394,-0.0301457 0.00880315,-0.114732 0.0157244,-0.230681 0.0354606,-0.344193 -0.00187795,-0.00121654 -0.00264961,-0.00331496 -0.00342126,-0.00541339 0.0229134,-0.0789449 0.0122559,-0.16365 0.0310827,-0.242043 0.000771654,0.00209843 0.00154331,0.00419685 0.00231496,0.00629528 0.00177165,-0.00684646 0.0044252,-0.0125866 0.00122835,-0.0199882 -0.00309449,0.000661417 -0.00508268,0.000437008 -0.00706693,0.000216535 0.000220472,-0.00198819 0.00154724,-0.00485827 0.00287402,-0.00772835 0.00916535,-0.000988189 0.0183346,-0.00197638 0.0286063,-0.00384646 0.0185472,0.00509055 0.0364291,0.0161457 0.0568622,0.0134016 0.00176378,0.00220866 0.0035315,0.00441732 0.00640157,0.00574409 -0.00199606,0.00883465 -0.00288189,0.0167835 -0.00377165,0.0247362 -0.00596457,-0.000665354 -0.0106063,0.00485039 -0.0176732,0.00506693 0.0011063,-0.00088189 0.00220866,-0.00176378 0.00442126,-0.0035315 -0.0129134,-0.0105 -0.029252,-0.0173543 -0.0454882,-0.0161535 -0.000129921,0.0281614 0.00073622,0.0564331 0.00159843,0.0847047 0.00838583,0.0150236 0.0251693,0.0179055 0.0312283,0.035689 -0.0130276,-0.000448819 -0.0259488,-0.0018937 -0.037874,-0.00322835 -0.0276496,0.229346 -0.0519882,0.456047 -0.0477244,0.687957 0.00437795,0.0598583 0.00875591,0.119713 0.014126,0.179681 0.0187638,0.0121614 0.0442756,0.00897638 0.0642559,0.0192598 -0.00966535,0.0864606 -0.0354528,0.17313 -0.0389331,0.258272 0.0324685,0.492657 0.0374252,0.511323 0.0382992,0.530539 0.00451575,0.0135866 0.00493701,0.0458307 0.0102283,0.0615157 0.000740157,0.047378 0.0130866,0.242957 0.0395709,0.276106 0.0131732,0.116181 0.0101142,0.233567 0.00318898,0.349516z"/>
   <path id="_130671888" class="fil4" d="M3.63962 2.77379c-0.0566457,-0.00633465 -0.113291,-0.0126654 -0.168945,-0.0188898 0.00254724,-0.0137992 0.00620079,-0.0284843 0.00985433,-0.0431693 0.0230866,-0.00848819 0.0473819,-0.00979921 0.0717913,-0.0120984 0.0135906,-0.0135748 0.0389921,-0.0157677 0.057874,-0.0136575 0.00351181,0.0315866 0.0276811,0.058437 0.0294252,0.087815z"/>
   <path id="_130671624" class="fil5" d="M3.10807 2.66808c-0.00243307,0.00375197 -0.00475591,0.00651181 -0.0070748,0.00927165 0.000555118,-0.0049685 0.00111024,-0.00993701 0.00266142,-0.0147953 0.000771654,0.00209843 0.00253543,0.00430709 0.00441339,0.00552362z"/>
   <path id="_130671224" class="fil3" d="M2.8153 4.68403c-0.0121457,0.000653543 -0.021752,-0.00343701 -0.0390906,-0.00135039 -0.00433071,0.0387559 0.000681102,0.137929 -0.0217559,0.167618 0.0105945,0.0132598 0.00494488,0.0367795 0.00405118,0.0537835 -0.00209843,0.000771654 -0.00320472,0.00165354 -0.00431102,0.00253543 -0.00466535,0.0417402 -0.00922047,0.0824882 -0.0137756,0.123232 -0.00198819,-0.000220472 -0.00397244,-0.000440945 -0.00585039,-0.00165748 0.00438583,-0.12026 0.00148425,-0.238311 0.00984646,-0.358122 0.00155118,-0.00485827 0.00309843,-0.00971654 0.00564173,-0.0144646 0.00591339,-0.0888937 0.00591339,-0.0888937 0.028126,-0.278598 0.0121535,-0.0097126 0.00337008,-0.0841496 -0.00645276,-0.0953071 -0.0023189,0.00275984 -0.00364567,0.00562992 -0.00497638,0.0085 -0.000870079,-0.0192165 0.00808661,-0.0363268 0.00721654,-0.0555433 -0.0138031,-0.00254724 -0.0138031,-0.00254724 -0.023185,-0.00862992 -0.000771654,-0.00209843 -0.00143307,-0.00518898 -0.00109843,-0.00817323 0.0200984,0.00023622 0.0403071,-0.000523622 0.0615118,-0.00117323 -0.00277953,0.0248465 -0.0169252,0.0433898 -0.0235669,0.0667953 0.00661811,0.012815 0.0187638,0.0121614 0.0247205,0.0218819 -0.00847638,0.129862 -0.00847638,0.129862 -0.0204843,0.246248 0.0046378,0.00353937 0.00927165,0.0070748 0.0150118,0.00972835 -0.00154724,0.00485827 -0.00298425,0.00872441 -0.0044252,0.0125866 -0.00518898,0.00143307 -0.00938583,0.00297638 -0.0135827,0.00451969 -0.00311417,0.0278268 -0.00622441,0.0556535 -0.00933465,0.0834803 0.0159016,0.00177559 0.0239567,0.0107283 0.0357638,0.0221102z"/>
   <path id="_130670960" class="fil6" d="M2.95607 3.24476c-0.035252,0.036311 -0.0691772,0.069748 -0.124492,0.0514882 -0.00561811,-0.0217559 -0.0147795,-0.0298268 0.00830709,-0.038311 0.00488189,-0.0346732 0.0105433,-0.0763031 0.0392717,-0.099252 0.0362205,2.3622e-005 0.0754961,0.0537205 0.0769134,0.0860748z"/>
   <path id="_130251296" class="fil7" d="M2.92558 3.24739c-0.0206654,0.0228465 -0.0332559,0.0274764 -0.061748,0.0303268 0.00344094,-0.0308071 0.0104173,-0.0571929 0.0197126,-0.0863425 0.00198819,0.000220472 0.00507874,-0.000437008 0.00817323,-0.00109843 0.00440157,0.0236339 0.0325551,0.0328189 0.0338622,0.0571142z"/>
   <path id="_130251152" class="fil5" d="M3.1885 0.805484c-0.0142441,0.0014252 -0.0183307,0.00197638 -0.0330157,-0.00167717 0.0235276,-0.0124646 0.0235276,-0.0124646 0.0349055,-0.0152165 -0.000665354,0.00596063 -0.00133465,0.0119252 -0.00188976,0.0168937z"/>
   <path id="_130250888" class="fil8" d="M3.21516 0.566972c-0.00640945,0.00330709 -0.0059685,0.00838583 -0.0100551,0.00893701 0.000216535,0.00706693 0.000429134,0.0141339 0.00175197,0.0203189 -0.00165354,-0.00320079 -0.00220472,-0.0072874 -0.00275197,-0.011374 -0.00144094,0.0038622 -0.00287795,0.00772835 -0.00431496,0.0115906 -0.0060748,0.000326772 -0.0111535,0.000767717 -0.016126,0.000212598 -0.00308268,-0.00839764 -0.0119173,-0.0103898 -0.0156654,-0.021878 -0.00209843,0.000771654 -0.00419685,0.00154331 -0.00618504,0.00132283 0.00122441,-0.0109331 0.00355118,-0.022748 -0.00351181,-0.0315866 0.00608661,-0.018437 0.00608661,-0.018437 0.00895669,-0.0171102 -0.000444882,0.00397244 -0.000889764,0.00794882 -0.00122441,0.0109291 0.00176772,0.0022126 0.00364567,0.00342913 0.00651575,0.00475591 -0.0121693,0.0278189 0.0142283,0.0257402 0.0338858,0.0208937 -0.000771654,-0.00209843 -0.000437008,-0.00508268 -0.000102362,-0.00806299 0.0073937,0.00585827 0.0073937,0.00585827 0.00882677,0.0110512z"/>
   <path id="_129896192" class="fil9" d="M3.18614 0.529516c-0.00232283,0.00275984 -0.00353543,0.00463386 -0.00475197,0.00651181 -0.00298425,-0.000334646 -0.00585433,-0.00166142 -0.00772835,-0.00287795 0.00121654,-0.00187402 0.00242913,-0.00375197 0.00364567,-0.00562992 0.00287008,0.00133071 0.00585433,0.00166142 0.00883465,0.00199606z"/>
   <path id="_130250744" class="fil2" d="M3.068 0.506244c-0.0808386,0.00303937 -0.161894,-0.000992126 -0.242169,-0.0119764 -0.0114764,-0.0143622 -0.0278189,-0.0121654 -0.0457087,-0.0141654 -0.00121654,0.00187402 -0.00232283,0.00275984 -0.0034252,0.00364173 -0.00088189,-0.0011063 -0.00165354,-0.00320472 -0.0024252,-0.00530315 -0.0447244,-0.005 -0.0934213,-0.0104409 -0.134717,-0.0190827 -0.0258425,0.00616535 -0.0505827,0.0114488 -0.0753228,0.0167323 -0.0507047,0.0215039 -0.236335,0.0168504 -0.264591,-0.00945276 -0.0547638,-0.0141693 -0.109972,-0.0243661 -0.165291,-0.0335709 -0.00220866,0.00176772 -0.0034252,0.00364173 -0.0045315,0.00452756 -0.0291417,-0.0183543 -0.100583,-0.0273465 -0.13935,-0.022622 -0.0238504,-0.00266535 -0.0704409,-0.017937 -0.0907677,-0.00712992 -0.0470354,-0.0112953 -0.0470354,-0.0112953 -0.0867874,-0.0157402 -0.112976,0.00246457 -0.225839,0.00393701 -0.337705,0.00551969 -0.0266181,0.00406693 -0.0266181,0.00406693 -0.0320315,0.00748819 -0.0800551,-0.0129764 -0.171386,-0.00607874 -0.247346,-0.0286575 -0.00231496,-0.00629528 -0.00728346,-0.00685039 -0.0133583,-0.00652362 -0.000220472,0.00198819 -0.000444882,0.00397244 -0.000665354,0.00596063 -0.058063,-0.038689 -0.123969,-0.0702047 -0.184461,-0.105142 -0.0061811,-0.00773622 -0.0061811,-0.00773622 -0.0507717,-0.0408937 0.00588583,-0.0526732 -0.0133031,-0.0880236 -0.0658583,-0.103961 0.000220472,-0.00198819 0.000444882,-0.00397638 0.000665354,-0.00596457 0.0404213,-0.00151575 0.0809488,-0.0040315 0.12148,-0.00654331 0.340012,0.00983465 0.685091,0.0373425 1.02343,0.0711378 0.140354,0.00462205 0.280476,0.0293425 0.420161,0.0399252 0.0404213,-0.00151575 0.0736732,-0.019937 0.112437,-0.0246614 0.0104882,0.00520079 0.0265984,0.0230984 0.0772638,0.0559331 0.0326811,0.0137126 0.0524409,0.0259843 0.127402,0.0575079 0.0729803,0.0222441 0.0830276,0.0223622 0.123657,0.0369685 0.0754921,0.0627756 0.079685,0.0702874 0.0902835,0.0744882 0.0123465,0.0335827 0.0853386,0.0377165 0.0905,0.0815591z"/>
   <path id="_130250480" class="fil3" d="M2.71291 1.90948c-0.0154646,0.00330315 -0.040752,0.00450394 -0.0513465,-0.00875591 -0.000775591,0.00695669 -0.00144488,0.0129173 -0.00111811,0.0189921 0.00408661,-0.000547244 0.00408661,-0.000547244 0.00452756,0.0045315 -0.0198898,0.0158898 -0.0251732,0.15315 -0.0286142,0.183961 -0.00431102,0.00253543 -0.00762598,0.00518504 -0.0109409,0.00783071 -0.0312165,-0.0537992 0.0143268,-0.119146 -0.00275591,-0.173378 -0.00172047,-0.0655984 -0.00333465,-0.132189 -0.00395276,-0.198669 -0.0114724,-0.0143622 -0.0347756,-0.0129449 -0.0535472,-0.0160472 0.0120472,-0.0177717 0.00455512,-0.040748 -0.00139764,-0.0595236 0.002,-0.0178898 0.00940945,-0.0301417 0.0171535,-0.0544331 -0.0814724,-0.0362756 -0.065252,-0.0193661 -0.0690591,-0.102303 -0.0238583,0.00638976 -0.0405354,0.0115669 -0.0651614,0.00680315 0.00222441,-0.019878 0.0735669,-0.028 0.0894685,-0.0262244 0.00682677,0.028937 -0.00180315,0.052122 5.51181e-005,0.0805039 0.0239567,0.0107283 0.0489094,0.0215669 0.0738583,0.0324055 -0.00255512,0.0228583 -0.0161535,0.0454882 -0.0157283,0.0686772 0.00938976,-0.00297244 0.0188898,-0.00694094 0.0283898,-0.0109134 -0.000665354,0.00596457 -0.00122441,0.0109331 -0.000783465,0.0160118 -0.0083937,0.00308661 -0.0157953,0.0062874 -0.0231969,0.00948425 -0.001,0.00894488 -0.00188976,0.0168937 -0.00178346,0.0249567 0.00695669,0.000775591 0.0140236,0.000559055 0.0220866,0.000456693 0.00498031,-0.0175551 0.00455512,-0.040748 0.0274094,-0.0381929 0.0165433,0.0320354 0.00974409,0.128882 0.00872441,0.164992 0.00264961,0.00331496 0.00129921,0.0424055 0.00493307,0.0548858 0.0188898,-0.00694488 0.031252,-0.000531496 0.0507953,0.00467323 0.000661417,0.00309055 0.00132283,0.00618504 0.00198425,0.00927559z"/>
   <path id="_130250216" class="fil3" d="M2.5364 3.28137c-0.0300472,0.0167638 -0.0579882,0.0146457 -0.0915591,0.017937 -0.00199606,0.00883465 -0.00199606,0.00883465 -0.0059685,0.00838976 -0.0186811,-0.138937 -0.00191339,-0.279945 0.00469685,-0.420079 0.00724016,-0.0917638 0.0144803,-0.183528 0.0228228,-0.276173 -0.00905512,-7.87402e-006 -0.0226417,0.00451181 -0.0288189,-0.00322047 0.0196693,-0.0229567 0.0196693,-0.0229567 0.0340354,-0.0344331 0.018878,-0.159894 0.018878,-0.159894 0.0235709,-0.237854 -0.00497244,-0.000555118 -0.00982677,-0.0021063 -0.0136929,-0.00354331 -0.000437008,-0.00507874 -0.000877953,-0.0101614 -0.000208661,-0.016122 0.00309055,-0.000661417 0.0072874,-0.00220472 0.0114843,-0.00374803 0.00455512,-0.0407441 0.00436614,-0.0840354 0.00991339,-0.124669 0.00408661,-0.000551181 0.00927953,-0.00198425 0.0144685,-0.00341339 0.019315,0.0162441 0.0118543,0.109996 0.0111811,0.125016 0.00872047,0.00298819 0.0175551,0.00498031 0.0263898,0.00697244 0.0068189,0.0379961 0.00768898,0.0572087 -0.00183465,0.0974016 0.00662598,0.00375984 0.00662598,0.00375984 0.0125827,0.0134803 -0.00520472,0.0195433 -0.0137126,0.023622 -0.0245433,0.0395197 -0.00176378,-0.0022126 -0.0035315,-0.00442126 -0.00430315,-0.00651969 -0.00773228,0.00617717 -0.0154685,0.0123583 -0.0230906,0.0175433 -0.00564961,0.0235157 -0.0191496,0.0632638 -0.00756693,0.085689 -0.037811,0.230224 -0.056752,0.480669 -0.0556929,0.714232 0.0188819,0.00211417 0.078189,-0.00635039 0.0861339,0.00359449z"/>
   <path id="_130249952" class="fil5" d="M2.69498 1.79981c-0.0131339,-0.00851181 -0.0131339,-0.00851181 -0.0154488,-0.0148071 0.00187402,0.00121654 0.00474409,0.00254331 0.00772835,0.00287402 -0.000326772,-0.00607087 -0.00065748,-0.0121457 -0.000870079,-0.0192126 0.0085,0.00497244 0.00760236,0.0219803 0.00859055,0.0311457z"/>
   <path id="_130059392" class="fil5" d="M2.48698 3.36338c-0.0295945,-0.0053189 -0.0295945,-0.0053189 -0.0527795,-0.0139488 0.00729134,-0.00220472 0.00729134,-0.00220472 0.0109409,-0.00783465 0.0137992,0.00255118 0.0285984,0.00520866 0.0433937,0.00787008 -0.000555118,0.0049685 -0.00111024,0.00993701 -0.00155512,0.0139134z"/>
   <path id="_130059128" class="fil5" d="M2.58563 2.32793c-0.00420079,0.00154331 -0.00740157,0.00319685 -0.0106063,0.00485039 0.00132677,-0.00287008 0.00375984,-0.00662205 0.00619291,-0.010374 0.000767717,0.00209843 0.00253543,0.00430709 0.00441339,0.00552362z"/>
   <path id="_128333152" class="fil5" d="M2.54509 2.51056c-0.00298031,-0.000334646 -0.0049685,-0.000555118 -0.00695669,-0.000779528 -0.000326772,-0.00607087 0.00034252,-0.0120354 0.00100787,-0.018 0.0013189,0.00618504 0.00363386,0.0124843 0.00594882,0.0187795z"/>
   <path id="_128333008" class="fil5" d="M2.43222 3.34015c-0.0102756,0.0109291 -0.013374,0.0206417 -0.0180236,0.0352165 0.00188976,-0.0168937 0.000456693,-0.0220866 0.0119488,-0.0348858 -0.00088189,-0.0011063 -0.00165354,-0.00320472 -0.0024252,-0.00530315 0.00695669,0.000775591 0.00695669,0.000775591 0.0085,0.00497244z"/>
   <path id="_128332744" class="fil10" d="M2.53332 2.43579c-0.00983465,0.00695276 -0.00983465,0.00695276 -0.0157953,0.0062874 0.00144094,-0.0129213 0.00288583,-0.0258425 0.00543701,-0.0396417 0.000771654,0.00209843 0.00264567,0.00331496 0.00452362,0.00452756 -0.00243307,0.00375591 -0.00387008,0.00761811 -0.00530709,0.0114843 0.000771654,0.00209843 0.00154331,0.00419685 0.00341732,0.00541339 0.00298819,-0.00872441 0.00298819,-0.00872441 0.00696457,-0.00827953 0.000216535,0.00706693 0.000433071,0.0141378 0.000759843,0.0202087z"/>
   <path id="_129902712" class="fil11" d="M2.53559 2.35252c-0.0034252,0.00364173 -0.00585827,0.00739764 -0.00829134,0.0111496 -0.00529528,-0.00662992 -0.00341339,-0.0144685 -0.00130709,-0.0242953 0.00309055,-0.000661417 0.00618504,-0.00132283 0.00927559,-0.00198425 -0.000555118,0.00497244 -0.000114173,0.0100512 0.000322835,0.0151299z"/>
   <path id="_128332576" class="fil3" d="M1.99817 6.23284c-0.00541339,0.00342126 -0.0117205,0.0238465 -0.0194567,0.0300236 -0.0598622,0.0134331 -0.0942087,0.014626 -0.16002,0.00927953 -0.0443898,-0.00798031 -0.0490236,-0.0115157 -0.0583031,-0.00953543 -0.0621654,-0.0109724 -0.119583,-0.0194055 -0.180657,-0.0131496 -0.0188819,-0.00211417 -0.106886,-0.0159764 -0.126331,-0.00406299 -0.00065748,-0.00309055 -0.0013189,-0.00618504 -0.00187008,-0.0102717 0.162898,-0.0170079 0.313181,0.00683858 0.472854,0.0186496 0.0132559,-0.00153937 0.0265079,-0.0030748 0.040752,-0.0045 0.0135551,-0.121244 0.000275591,-0.245488 -0.000192913,-0.367295 -0.00198425,-0.00927953 -0.00297244,-0.0184449 -0.00395669,-0.0276102 0.023748,-0.338457 0.0347953,-0.680346 0.0586575,-1.0198 -0.0819331,-0.0141929 -0.168512,-0.0138071 -0.249776,-0.0339606 -0.0160236,0.0173268 -0.00825197,0.118819 -0.00914961,0.144882 -0.0278858,0.249445 -0.0278858,0.249445 -0.0385354,0.317685 0.000645669,0.0302559 0.000645669,0.0302559 0.00406299,0.0356693 -0.0045315,0.00452756 -0.0045315,0.00452756 -0.0126142,0.0408543 -0.00314173,0.0731024 -0.00485039,0.151398 -0.00379528,0.222957 -0.00740551,0.012252 -0.00928346,0.0110394 -0.0090748,0.0271614 -0.00198425,-0.000224409 -0.00397244,-0.000444882 -0.00596063,-0.000665354 -0.00461024,-0.0397598 -0.00922441,-0.0795197 -0.0128425,-0.119165 0.00333465,-0.029815 0.000137795,-0.0372165 0.0170787,-0.269772 0.0252165,-0.225594 0.038622,-0.45352 0.0227598,-0.680685 -0.00835827,-0.051248 -0.00835827,-0.051248 -0.00811811,-0.0804016 0.0253031,-0.0193071 0.142843,-0.0806299 0.120008,-0.119406 4.33071e-005,-0.0633898 -0.0256417,-0.130657 -0.0185315,-0.19426 -0.00298031,-0.000334646 -0.00485827,-0.00155118 -0.00673622,-0.00276772 -0.00790551,-0.0642756 -0.0148189,-0.128441 -0.021626,-0.193598 -0.0168858,-0.0109449 -0.083811,-0.00635433 -0.107559,-0.000956693 -0.0340906,0.115929 -0.0658661,0.238157 -0.0793071,0.358406 0.000437008,0.00508268 0.000877953,0.0101614 0.00242126,0.0143583 -0.0150787,0.0898819 -0.0317008,0.175567 -0.039937,0.26722 -0.00420079,0.0105984 -0.00741339,0.0213071 -0.0105118,0.0310236 -0.00235039,0.0480354 -0.0105472,0.0853543 -0.0257717,0.230563 -0.0109685,0.0531102 -0.0117756,0.105343 -0.0218622,0.159559 0.00197638,0.0183307 -0.00479528,0.0698976 -0.0210984,0.341772 -0.00950787,0.0130236 -0.0035748,0.0589685 -0.00148819,0.0763071 -0.00499213,0.0356654 -0.00437008,0.0930906 -0.0107008,0.149736 -0.00473228,0.14135 -0.0188543,0.285673 -0.0206063,0.427358 0.000771654,0.00209843 0.00154331,0.00419685 0.00342126,0.00541339 -0.0126654,0.113291 -0.0153937,0.227697 -0.0280591,0.340992 -0.0110472,0.00882677 -0.0110472,0.00882677 -0.0203268,0.0108071 0.0116654,-0.104346 0.00643701,-0.210587 0.0130236,-0.3145 0.0012126,-0.00187402 0.0034252,-0.00364173 0.00563386,-0.00540551 -0.00198819,-0.000220472 -0.00298031,-0.000334646 -0.00397638,-0.000444882 0.002,-0.0178898 -0.00108661,-0.0262835 0.0078622,-0.196343 0.0056811,-0.239854 0.0224055,-0.479476 0.0330591,-0.718776 0.0188858,-0.168949 0.0377717,-0.337894 0.0566575,-0.506843 0.0490709,-0.222929 0.052874,-0.463996 0.130433,-0.680724 -0.00706299,-0.00883858 -0.00706299,-0.00883858 -0.00827165,-0.0160157 0.0114882,-0.00374803 0.0114882,-0.00374803 0.178681,-0.0051811 0.00386614,0.00143701 0.00772835,0.00287402 0.0115945,0.00431496 0.0116299,0.111984 0.0243661,0.223087 0.0371024,0.334189 0.0030315,0.0898937 0.0030315,0.0898937 -0.000393701,0.0935354 0.00574016,0.00265354 0.00574016,0.00265354 0.00860236,0.0130354 -0.00607874,0.00938189 -0.0134843,0.0216378 -0.0237559,0.0235079 -0.00364961,0.00562992 -0.00619291,0.010374 -0.00873622,0.015122 -0.00298031,-0.000334646 -0.00596063,-0.000665354 -0.00783858,-0.00188189 -0.0249764,0.0253819 -0.052815,0.0403819 -0.0785591,0.0636654 0.00787795,0.109555 0.0147598,0.218996 0.0144646,0.32965 0.0919764,0.0233622 0.18374,0.0306024 0.278374,0.0391654 0.00463386,0.00353937 0.00938189,0.00608268 0.0141299,0.00862598 -0.0124843,0.174693 -0.0124843,0.174693 -0.018811,0.222283 -0.00606693,0.31528 -0.0522126,0.629094 -0.0483386,0.945484 0.00528346,0.0247402 -0.00544488,0.0486969 0.0088937,0.0734409 -0.00644094,0.0576417 -0.00449213,0.112197 -0.00707087,0.171276z"/>
   <path id="_128332312" class="fil5" d="M2.40885 0.965862c-0.0103819,0.00286614 -0.017563,0.0040748 -0.0282717,0.000866142 0.000224409,-0.00198819 0.000444882,-0.00397638 0.000779528,-0.00695669 0.00794882,0.000885827 0.0168937,0.00188583 0.0259488,0.0018937 -0.000220472,0.00198819 0.000661417,0.00309055 0.00154331,0.00419685z"/>
   <path id="_129335384" class="fil5" d="M1.54085 5.94022c-0.00397244,-0.000444882 -0.00695669,-0.000775591 -0.00993701,-0.00111024 0.000444882,-0.00397638 0.000889764,-0.00794882 0.00144488,-0.0129213 0.00198819,0.000224409 0.00397638,0.000444882 0.00695669,0.000779528 0.000437008,0.00507874 0.000988189,0.00916535 0.00153543,0.013252z"/>
   <path id="_129335120" class="fil6" d="M1.90115 2.69013c-0.00851181,0.0131378 -0.0113937,0.0299213 -0.0220079,0.0438268 -0.00816929,0.00110236 -0.0162323,0.00120472 -0.0232992,0.00142126 0.00255512,-0.0228583 0.010626,-0.0410748 0.0189252,-0.0612756 0.00805906,-0.000106299 0.0171142,-9.84252e-005 0.0262835,-0.00108661 -0.000669291,0.00596063 -0.00034252,0.0120354 9.84252e-005,0.0171142z"/>
   <path id="_129334856" class="fil6" d="M1.81777 2.86898c-0.00309055,0.00065748 -0.00519291,0.00142913 -0.00729134,0.00220079 -0.00833071,0.0745354 -0.0886024,0.0544961 -0.137728,0.0349173 0.00144094,-0.0129213 0.00288583,-0.0258386 0.00444094,-0.039752 0.00375591,0.00242913 0.0085,0.00497244 0.013248,0.00751575 0.00688976,-0.0616142 0.00901575,-0.107665 0.0817795,-0.0924843 0.00949606,0.00508268 0.0189882,0.0101693 0.0294764,0.0153701 -0.00133465,0.0119252 0.00959843,0.0131457 0.0157795,0.0208819 9.84252e-005,0.0171142 0.00019685,0.0342323 0.000295276,0.0513504z"/>
   <path id="_129334592" class="fil12" d="M1.79171 2.85902c-0.0182402,0.0281457 -0.0328307,0.0506654 -0.0694803,0.0274488 -0.00108661,-0.0262835 -0.00327953,-0.0516811 0.00248031,-0.0761929 0.0342402,-0.00925591 0.0627165,0.0150591 0.067,0.0487441z"/>
   <path id="_129334328" class="fil13" d="M1.85442 2.05501c-0.00198425,-0.000220472 -0.00397244,-0.000444882 -0.00596063,-0.000665354 -0.000224409,0.00198819 -0.000444882,0.00397638 -0.000665354,0.00596457 -0.0132559,0.00153543 -0.0277244,0.00494882 -0.0389843,-0.00234646 -0.00320079,0.00165354 -0.00640551,0.00330709 -0.00850394,0.00407874 -0.000685039,0.0331299 -0.00125984,0.0652638 -0.000838583,0.0975118 -0.00287008,-0.00132677 -0.00574016,-0.00265354 -0.00761811,-0.00387008 -0.0245197,-0.158709 -0.000885827,-0.32511 -0.0070748,-0.485791 0.00243307,-0.00375591 0.00486614,-0.00750787 0.00840157,-0.0121417 -0.0238504,-0.00266929 -0.0481535,0.00769685 -0.0709055,0.0132008 -0.000334646,0.00298425 -0.00185433,0.133622 0.00015748,0.097622 -0.00298425,-0.000330709 -0.0044252,0.0125866 -0.00840157,0.0121417 -0.0230512,-0.207846 -0.0200433,-0.414791 -0.0178031,-0.623839 0.00529921,-0.0024252 0.0115984,-0.00474016 0.0178937,-0.00705512 -0.000444882,0.00397638 -0.000779528,0.00695669 -0.00111024,0.00993701 0.000992126,0.000110236 0.00198425,0.000224409 0.00397244,0.000444882 0.00111024,-0.00993701 0.00111024,-0.00993701 0.00409449,-0.00960236 -0.00278346,0.0338976 -0.00278346,0.0338976 0.00138976,0.0685787 0.0296969,0.0133819 0.0725472,0.0081063 0.104906,0.00669291 0.00240157,0.0415236 0.00579528,0.0831614 0.00930315,0.123803 0.00187795,0.0012126 0.00375197,0.00242913 0.00574016,0.00265354 0.00656299,0.094311 0.0312362,0.188638 0.0205709,0.284043 -0.0128189,0.0156732 -0.0310433,0.0166535 -0.0499252,0.0145433 -0.000122047,0.0191024 0.000748031,0.0383189 0.00161811,0.0575354 -0.00187402,-0.00121654 -0.00275984,-0.00232283 -0.0035315,-0.00442126 -0.00277559,0.0248465 0.000952756,0.0635 0.00723228,0.0883504 -0.00583858,0.142232 -0.00583858,0.142232 -0.00275197,0.150626 0.0254016,-0.00218898 0.0254016,-0.00218898 0.0351181,0.000909449 -0.0116063,0.0137953 -0.0235315,0.0124606 -0.0419764,0.0154331 -0.00123228,0.0290394 -0.0024685,0.0580827 -0.00359055,0.0861339 0.0172283,-0.00109449 0.0330157,0.00167717 0.049689,0.00555512 -0.000220472,0.00198425 -0.000330709,0.00298031 -0.000444882,0.00397244z"/>
   <path id="_130358888" class="fil14" d="M1.83196 1.62586c-0.0173504,0.0201969 -0.081622,0.0190472 -0.111114,0.0308465 -0.000204724,-0.0251811 -0.0107165,-0.156157 0.00143701,-0.165866 -0.00581496,-0.0559961 -0.0141575,-0.134406 -0.00208268,-0.188398 -0.00187795,-0.00121654 -0.00375591,-0.00243307 -0.0046378,-0.00353937 0.00729528,-0.0112598 0.00443701,-0.0306969 0.0061063,-0.0456024 0.0223071,-0.0015315 0.0456102,-0.00295276 0.0690236,-0.00536614 0.021563,0.122154 0.0309685,0.254012 0.0412677,0.377925z"/>
   <path id="_130358624" class="fil5" d="M1.72494 1.8091c-0.00440945,-0.0145787 -0.00440945,-0.0145787 -0.00131496,-0.0152402 0.000437008,0.00507874 0.000877953,0.0101614 0.00131496,0.0152402z"/>
   <path id="_130358360" class="fil10" d="M1.6998 1.09791c-0.00243307,0.00375591 -0.0048622,0.00750787 -0.00729528,0.0112598 -0.0294803,-0.00631496 -0.0774016,-0.0187126 -0.0837835,-0.051626 0.0118268,-0.0157835 0.0236535,-0.0315669 0.0365866,-0.0482362 0.00200394,-0.0269449 -0.00637402,-0.0510236 -0.00856299,-0.0764252 0.0191102,-0.00892913 0.0478307,-0.0228268 0.0581142,-0.0428071 0.00231496,0.00629528 0.00231496,0.00629528 0.000637795,0.039315 -0.0109331,-0.00122441 -0.0187795,0.00594882 -0.0275079,0.0120197 0.0192913,0.0524646 -0.0153976,0.074752 -0.0300039,0.115378 0.0234016,0.0156969 0.0234016,0.0156969 0.0580669,0.0296339 0.000551181,0.00408661 0.00209449,0.0082874 0.00374803,0.0114882z"/>
   <path id="_128492656" class="fil15" d="M1.66345 0.288862c-0.0179055,0.0251654 -0.0394567,0.0469055 -0.0626575,0.0654449 -0.030378,0.010689 -0.110319,-0.00327953 -0.105988,-0.0420354 0.0287283,-0.0229528 0.0500866,-0.0879803 0.0908307,-0.0834252 0.0248386,0.0118307 0.0496772,0.0236654 0.0745197,0.0354961 0.00109843,0.00817323 0.00219685,0.0163465 0.00329528,0.0245197z"/>
   <path id="_128492392" class="fil3" d="M1.15254 4.67928c-0.00353937,0.00463386 -0.00696457,0.00827953 -0.0103898,0.0119213 -0.00143307,-0.00519291 -0.00286614,-0.0103858 -0.00429528,-0.0155748 -0.00298425,-0.000334646 -0.00596457,-0.000665354 -0.00883465,-0.00199606 0.00444488,-0.039752 0.00362205,-0.131409 -0.0157913,-0.164772 -0.00408661,0.000547244 -0.00817323,0.00109843 -0.0111535,0.00076378 -0.0123228,0.0922047 -0.0245276,0.183409 -0.0367362,0.274618 -0.00232283,0.00275984 -0.00464173,0.00551969 -0.00597244,0.00838976 -0.00684252,-0.00177165 -0.0126969,-0.00343307 -0.018437,-0.00608661 0.011374,-0.164756 0.037878,-0.329831 0.0611772,-0.493256 0.00464173,-0.00551969 0.00464173,-0.00551969 0.00586614,-0.0164488 0.0155709,-0.00429921 0.0186654,-0.00495669 0.0262756,0.0079685 -0.0108701,0.0702244 -0.0217362,0.140453 -0.0316142,0.210791 0.0129213,0.00144488 0.0268346,0.003 0.040748,0.00455512 0.010563,0.0585354 0.00787008,0.11861 0.00915748,0.179126z"/>
   <path id="_128491816" class="fil16" d="M1.62326 0.288394c-0.0125984,0.013685 -0.0251969,0.0273701 -0.0377953,0.0410551 -0.0218622,-0.00244488 -0.0356654,-0.00499606 -0.0556457,-0.0152795 0.00409843,-0.0186575 0.0309409,-0.0337677 0.0371378,-0.0532008 0.0188819,0.00211024 0.0369882,0.0111772 0.0542087,0.0191417 0.000661417,0.00309055 0.00132283,0.00618504 0.00209449,0.00828346z"/>
   <path id="_128771312" class="fil5" d="M1.16549 2.97014c-0.00298031,-0.000334646 -0.0049685,-0.000559055 -0.00695669,-0.000779528 -0.000216535,-0.00706693 0.000562992,-0.0140236 0.00133858,-0.0209803 0.00120866,0.00717717 0.00341339,0.0144685 0.00561811,0.0217598z"/>
   <path id="_128771240" class="fil3" d="M0.916496 4.74748c-0.0343425,0.163193 -0.0736535,0.325831 -0.119701,0.485705 -0.00111024,0.00994094 -0.00122835,0.0199882 -0.00134646,0.0300394 0.000996063,0.000110236 0.00209843,-0.000771654 0.00419685,-0.00154331 0.00100787,-0.018 0.00100787,-0.018 0.00398819,-0.0176654 -0.000775591,0.00695669 -0.000775591,0.00695669 0.00319685,0.00739764 0.000779528,-0.00695669 0.00497638,-0.0085 0.00277165,-0.0157874 0.00309449,-0.000661417 0.00618504,-0.00132283 0.00938976,-0.00297638 0.000334646,-0.00298031 0.000665354,-0.00596457 0.00111024,-0.00993701 0.00143307,0.00518898 0.00297638,0.00938583 0.00451969,0.0135866 -0.00408661,0.000547244 -0.0071811,0.00120866 -0.0101614,0.000874016 0.00342126,0.00541339 0.00342126,0.00541339 0.00451181,0.0226417 -0.00209843,0.000771654 -0.00419685,0.00154331 -0.00629528,0.00231496 0.00143307,0.00519291 0.00297638,0.00938976 0.00451969,0.0135866 -0.00298031,-0.000334646 -0.0049685,-0.000555118 -0.00695669,-0.000775591 -0.000779528,0.00695669 -0.000562992,0.0140236 -0.00023622,0.0200984 -0.0143425,-0.0156929 -0.0120276,-0.00939764 -0.0166535,-0.0310433 -0.00906693,0.0181024 -0.00906693,0.0181024 -0.0147165,0.041622 -0.00187402,-0.00121654 -0.00275591,-0.00232283 -0.00352756,-0.00442126 -0.00144094,0.00386614 -0.00177165,0.00684646 -0.0021063,0.00982677 -0.00596457,-0.000665354 -0.0119252,-0.00133071 -0.0168937,-0.00188583 0.00188583,-0.0168976 0.00388583,-0.0347835 0.00588583,-0.0526732 0.00198819,0.000220472 0.00397638,0.000444882 0.00695669,0.000779528 -0.00108661,-0.0262835 0.00312205,-0.0459409 0.00811024,-0.0725512 0.00198819,0.000224409 0.00397638,0.000444882 0.00695669,0.000779528 0.00023622,-0.0200984 0.00023622,-0.0200984 0.00853543,-0.0493583 0.00198819,0.000224409 0.00397638,0.000444882 0.00695669,0.000779528 0.00166929,-0.0149094 0.00344488,-0.030811 0.00522441,-0.0467087 0.000992126,0.000110236 0.00309055,-0.000661417 0.00518898,-0.00143307 0.00023622,-0.0200984 0.00212992,-0.0460472 -0.0187323,-0.057437 0.00276378,-0.00673622 0.0110472,-0.00882677 0.0349213,-0.0423819 0.00198819,0.000220472 0.00397638,0.000444882 0.00596457,0.000665354 0.002,-0.0178898 0.004,-0.0357756 0.006,-0.0536654 0.00198819,0.000220472 0.00397638,0.000444882 0.00695669,0.000779528 -0.000877953,-0.0101614 -0.00175591,-0.0203228 -0.0016378,-0.0303701 -0.00420079,0.0105984 -0.0148071,0.0154488 -0.0264016,0.0111339 -0.00176772,0.00684646 -0.00243701,0.0128071 -0.00310236,0.0187717 0.00209843,-0.000771654 0.00518898,-0.00143307 0.00828346,-0.00209449 -0.00143701,0.00386614 -0.00276378,0.00673622 -0.00409449,0.0096063 -0.0218543,-0.0115 -0.0218543,-0.0115 -0.0316772,-0.0226575 0.00983465,-0.00695276 0.0193386,-0.0199764 0.031815,-0.0145591 0.00265354,-0.00574016 0.00530709,-0.0114803 0.00906693,-0.0181024 0.0060748,-0.000326772 0.0131417,-0.000543307 0.0202087,-0.000759843 0.0352087,-0.134925 0.0497677,-0.274169 0.0662047,-0.412197 0.00805906,-0.000106299 0.0171142,-9.84252e-005 0.0262835,-0.00108661 -0.00823228,0.0916535 -0.0163543,0.182311 -0.0234843,0.273083z"/>
   <path id="_128770976" class="fil1" d="M1.10801 3.2327c-0.0442638,-0.0180315 -0.0556102,-0.0605551 -0.0840787,-0.0939252 -0.0648071,-0.0233425 -0.0923819,-0.0737165 -0.139728,-0.118252 -0.0223937,-0.0336969 -0.0504252,-0.0619882 -0.0783465,-0.0912717 -0.0649173,-0.0223504 -0.156591,-0.00255906 -0.175429,-0.0680591 -0.109559,-0.142752 -0.0394764,-0.240303 -0.0748189,-0.411713 -0.0304291,-0.24087 0.00168898,-0.72663 0.0124528,-0.966921 -0.00725984,-0.0430709 0.000503937,-0.0945276 0.00527953,-0.137264 0.00437008,-0.0930906 0.0277441,-0.365177 0.0259882,-0.385496 0.00743701,-0.0575315 0.00743701,-0.0575315 0.0138583,-0.0789488 0.0076063,0.0219803 -0.00417323,0.127323 0.0181299,0.134846 0.000551181,0.00408661 0.00109843,0.00817323 0.00164961,0.0122598 0.00562992,0.00364961 0.00562992,0.00364961 0.00993701,0.00111024 -0.00170472,-0.0927638 -0.00241732,-0.185413 -0.00312598,-0.278067 0.00666535,-0.0596299 0.0120827,-0.0720984 0.0455748,-0.281681 0.0212717,-0.100256 0.0212717,-0.100256 0.0244724,-0.101913 0.00181496,-0.0702323 0.0314567,-0.137354 0.0499409,-0.203713 0.035563,-0.00306693 0.0750866,0.0124213 0.110417,0.0203937 -0.0059685,0.00838976 -0.0118268,0.0157835 -0.016689,0.0232913 0.00870472,0.0301535 0.0215118,0.0325906 0.0351929,0.0542441 -0.0132835,0.046815 0.0020315,0.0988386 -0.0188701,0.141783 0.00220472,0.0072874 0.00385039,0.0195472 -0.00277559,0.0248425 0.00448819,0.0588661 -0.0149921,0.12511 0.00164173,0.183319 0.00386614,0.00143701 0.00783858,0.00188189 0.012811,0.00243701 0.0163583,-0.191366 0.0163583,-0.191366 0.0335748,-0.33635 0.00750394,0.0048622 0.0160039,0.00983858 0.0246142,0.0138189 -0.002,0.0178898 -0.000350394,0.0301496 0.0137795,0.0387717 0.000889764,-0.00794882 0.00277165,-0.0157913 0.00476378,-0.024622 0.00198819,0.000220472 0.00408661,-0.000551181 0.0071811,-0.0012126 0.0386299,0.0324961 0.0828937,0.0595787 0.120642,0.0909685 -0.00034252,0.0120354 -0.000681102,0.0240709 -0.00101969,0.0361102 -0.0279685,0.0431575 0.0157126,0.120492 0.000433071,0.176138 -0.00401575,0.0629449 -0.00148425,0.0763071 -0.00525591,0.101039 -0.00994488,0.00794488 -0.0103898,0.0119213 -0.0155866,0.0224094 0.0157717,0.029937 -0.00898819,0.0623858 0.0106496,0.0937638 -0.0176772,0.014122 -0.00456693,0.220858 -0.00160236,0.248358 -0.00209843,0.000771654 -0.00320472,0.00165354 -0.00430709,0.0025315 0.0018622,0.0193307 0.0018622,0.0193307 -0.00135827,0.0481535 0.00088189,0.00111024 0.00187795,0.00121654 0.0038622,0.00143701 -0.00844094,0.0755315 -0.00164961,0.158799 0.00293701,0.23478 0.00187795,0.00121654 0.00375197,0.00243307 0.00662205,0.00375984 -0.0036811,0.0599606 0.000472441,0.121807 -0.00034252,0.183094 0.00966929,0.237543 0.00966929,0.237543 0.0132008,0.241965 -0.00994488,0.00794488 0.010248,0.0343504 0.00306693,0.0355591 0.000984252,0.0182244 0.00196457,0.0364449 0.00305906,0.0536732 0.00110236,-0.00088189 0.0023189,-0.00275984 0.0045315,-0.00452362 -0.00191339,0.0531142 0.0205394,0.347756 0.0175197,0.401752 0.018374,0.105697 0.00681102,0.218106 0.0180039,0.325012 -0.00332677,0.0207598 -0.00942913,0.0663661 -0.000385827,0.0844803 -0.0114685,0.138587 -0.00838189,0.14698 -0.0123937,0.200866 0.013748,0.0840472 -0.0119331,0.178783 -0.0154134,0.263921 0.00220079,0.00730315 0.00220079,0.00730315 -0.00425984,0.0830433z"/>
   <path id="_128770712" class="fil2" d="M1.09442 3.26439c-0.0865787,0.00038189 -0.172354,-0.0424094 -0.256291,-0.0296575 -0.0993819,-0.0111102 -0.240516,-0.00877165 -0.324957,-0.0634921 -0.00144094,0.0038622 -0.00287795,0.00772835 -0.00332283,0.0117008 -0.0839252,-0.00535433 -0.43972,-0.0744094 -0.520547,-0.0894803 -0.0233307,-0.154579 -0.0984921,-0.116972 -0.172445,-0.255433 0.0189921,0.00111417 0.249874,-0.0468898 0.269969,-0.0466535 0.00220472,0.00729134 0.00440945,0.0145787 0.0076063,0.0219803 0.00265354,-0.00574016 0.00541732,-0.0124764 0.00917717,-0.0190984 0.0261732,-9.44882e-005 0.0524567,-0.0011811 0.0787402,-0.00226772 0.0931772,0.0395984 0.240512,0.00877559 0.346406,0.0246299 0.0036378,0.0124882 0.0036378,0.0124882 0.0075,0.0139291 -0.00088189,-0.0011063 -0.000771654,-0.00209843 -0.000547244,-0.00408661 0.0317992,0.00355512 0.067874,0.0589055 0.079122,0.084311 0.078122,0.0932559 0.110209,0.00341339 0.135594,0.0283898 -0.0681417,0.0064685 -0.0818386,0.0119803 -0.127673,0.0169213 -0.0619488,-0.00390945 -0.0619488,-0.00390945 -0.0612874,-0.000814961 0.0493504,0.0175906 0.103362,0.00249606 0.15328,-0.00299213 0.0249567,0.00178346 0.0499134,0.00357087 0.0758622,0.00546457 0.0603661,0.0630945 0.121803,0.170587 0.205933,0.201122 0.0321024,0.0458504 0.0482087,0.0728071 0.0985472,0.099563 -0.000220472,0.00198819 -0.000444882,0.00397638 -0.000665354,0.00596457z"/>
   <path id="_128770448" class="fil5" d="M1.21861 0.487673c-0.00474409,-0.00254331 -0.00474409,-0.00254331 -0.00628346,-0.0157992 0.00143307,0.00519291 0.00385827,0.0104961 0.00628346,0.0157992z"/>
   <path id="_128770184" class="fil5" d="M0.803472 3.17519c-0.00243307,0.00375591 -0.00475591,0.00651181 -0.00608268,0.00938583 -0.00319685,-0.00740157 -0.00540551,-0.0056378 -0.00474016,-0.0115984 0.00287008,0.00132677 0.00684646,0.00176772 0.0108228,0.0022126z"/>
   <path id="_128869616" class="fil17" d="M0.914433 1.88553c-0.00938189,-0.00607874 -0.00938189,-0.00607874 -0.0158898,-0.0198898 -0.00612992,-0.0801772 -0.0122598,-0.160354 -0.0172874,-0.241413 -0.0469528,-0.300075 -0.0469528,-0.300075 -0.0471575,-0.325252 0.0049685,0.000555118 0.00994094,0.00111024 0.0159016,0.00177559 0.0203031,0.0254134 0.0279764,0.109787 0.0289528,0.137067 0.0166772,-0.0051811 0.0333583,-0.0103583 0.0501457,-0.0165315 -0.0115,0.0218583 -0.0249724,0.0253819 -0.0462953,0.0360787 0.000641732,0.0302598 0.000641732,0.0302598 0.00527165,0.0428504 0.00187795,0.00121654 0.00375591,0.00243307 0.00673622,0.00276772 0.00552362,-0.00441339 0.0111614,-0.00982283 0.0177835,-0.00606299 -0.00420472,0.0105984 -0.0116063,0.0137953 -0.0223189,0.0196417 -0.00611024,0.0546614 0.0177047,0.111657 0.0114803,0.167311 0.00275984,0.00232283 0.00562992,0.00364961 0.0085,0.00497638 -0.00188189,0.00783858 -0.00365354,0.014685 -0.00442913,0.0216417 0.00088189,0.00110236 0.00275984,0.0023189 0.00474409,0.00254331 -0.00344094,0.0308071 0.00227953,0.060626 -0.00613386,0.0908819 0.00837795,0.0240787 -0.00412598,0.063937 0.00999606,0.0816142z"/>
   <path id="_128869472" class="fil5" d="M0.562843 2.51034c-0.00397638,-0.000444882 -0.00695669,-0.000779528 -0.00993701,-0.00111024 0.000444882,-0.00397638 0.000889764,-0.00795276 0.00133465,-0.0119252 0.00253543,0.00430709 0.00507087,0.00861417 0.00860236,0.0130354z"/>
   <path id="_128869024" class="fil11" d="M0.478693 3.03859c-0.0273031,0.0371969 -0.0448701,0.0503268 -0.0864882,0.0265551 -0.0239488,-0.0197795 -0.0623622,-0.0452047 -0.0225906,-0.0679291 0.000547244,0.00408661 0.00220079,0.00729134 0.00385827,0.0104961 0.0176811,-0.0231811 0.038122,-0.0349843 0.0669409,-0.0317598 0.0158898,0.0198858 0.0329921,0.0378976 0.0382795,0.0626378z"/>
   <path id="_128868880" class="fil18" d="M0.444453 3.04784c-0.00397638,-0.000444882 -0.00695669,-0.000779528 -0.00994094,-0.00111417 -0.00497244,0.0085 -0.00497244,0.0085 -0.0112677,0.010815 -0.0238425,-0.0207756 -0.0238425,-0.0207756 -0.0286929,-0.0313819 0.0070748,-0.00927165 0.0145906,-0.0225157 0.0269606,-0.0251575 0.00959843,0.0131457 0.00959843,0.0131457 0.0235079,0.0237559 -0.000889764,0.00795276 -0.000783465,0.0160118 -0.000566929,0.0230827z"/>
   <path id="_130355320" class="fil5" d="M0.0738622 1.00671c-0.0159055,0.00727559 -0.0159055,0.00727559 -0.0155709,0.00429528 0.00518898,-0.00143307 0.0103819,-0.0028622 0.0155709,-0.00429528z"/>
   <path id="_130355176" class="fil5" d="M-0.251421 3.58352c-0.0115945,-0.00431496 -0.0115945,-0.00431496 -0.0157835,-0.0118268 0.00198425,0.000220472 0.0049685,0.000555118 0.00805906,-0.000106299 0.00220472,0.00729134 0.00220472,0.00729134 0.00772441,0.0119331z"/>
  </g>
 </g>
</svg>
